<svg width="99" height="17" viewBox="0 0 99 17" fill="none" xmlns="http://www.w3.org/2000/svg">
<path d="M9.481 13.644H4.503L3.705 16H0.304L5.13 2.662H8.892L13.718 16H10.279L9.481 13.644ZM8.645 11.136L6.992 6.253L5.358 11.136H8.645ZM20.1838 2.662C21.5898 2.662 22.8185 2.94067 23.8698 3.498C24.9211 4.05533 25.7318 4.84067 26.3018 5.854C26.8845 6.85467 27.1758 8.01367 27.1758 9.331C27.1758 10.6357 26.8845 11.7947 26.3018 12.808C25.7318 13.8213 24.9148 14.6067 23.8508 15.164C22.7995 15.7213 21.5771 16 20.1838 16H15.1868V2.662H20.1838ZM19.9748 13.188C21.2035 13.188 22.1598 12.8523 22.8438 12.181C23.5278 11.5097 23.8698 10.5597 23.8698 9.331C23.8698 8.10233 23.5278 7.146 22.8438 6.462C22.1598 5.778 21.2035 5.436 19.9748 5.436H18.4358V13.188H19.9748ZM37.2945 13.644H32.3165L31.5185 16H28.1175L32.9435 2.662H36.7055L41.5315 16H38.0925L37.2945 13.644ZM36.4585 11.136L34.8055 6.253L33.1715 11.136H36.4585ZM51.0753 9.16C51.8479 9.32467 52.4686 9.711 52.9373 10.319C53.4059 10.9143 53.6403 11.5983 53.6403 12.371C53.6403 13.4857 53.2476 14.3723 52.4623 15.031C51.6896 15.677 50.6066 16 49.2133 16H43.0003V2.662H49.0043C50.3596 2.662 51.4173 2.97233 52.1773 3.593C52.9499 4.21367 53.3363 5.056 53.3363 6.12C53.3363 6.90533 53.1273 7.55767 52.7093 8.077C52.3039 8.59633 51.7593 8.95733 51.0753 9.16ZM46.2493 8.058H48.3773C48.9093 8.058 49.3146 7.944 49.5933 7.716C49.8846 7.47533 50.0303 7.127 50.0303 6.671C50.0303 6.215 49.8846 5.86667 49.5933 5.626C49.3146 5.38533 48.9093 5.265 48.3773 5.265H46.2493V8.058ZM48.6433 13.378C49.1879 13.378 49.6059 13.2577 49.8973 13.017C50.2013 12.7637 50.3533 12.4027 50.3533 11.934C50.3533 11.4653 50.1949 11.098 49.8783 10.832C49.5743 10.566 49.1499 10.433 48.6053 10.433H46.2493V13.378H48.6433ZM58.7737 5.265V7.963H63.1247V10.471H58.7737V13.397H63.6947V16H55.5247V2.662H63.6947V5.265H58.7737ZM75.399 2.662V5.265H71.865V16H68.616V5.265H65.082V2.662H75.399ZM78.5496 16.152C77.9796 16.152 77.5109 15.9873 77.1436 15.658C76.7889 15.316 76.6116 14.898 76.6116 14.404C76.6116 13.8973 76.7889 13.473 77.1436 13.131C77.5109 12.789 77.9796 12.618 78.5496 12.618C79.1069 12.618 79.5629 12.789 79.9176 13.131C80.2849 13.473 80.4686 13.8973 80.4686 14.404C80.4686 14.898 80.2849 15.316 79.9176 15.658C79.5629 15.9873 79.1069 16.152 78.5496 16.152ZM84.0259 4.296C83.4559 4.296 82.9872 4.13133 82.6199 3.802C82.2652 3.46 82.0879 3.042 82.0879 2.548C82.0879 2.04133 82.2652 1.62333 82.6199 1.294C82.9872 0.951999 83.4559 0.780999 84.0259 0.780999C84.5832 0.780999 85.0392 0.951999 85.3939 1.294C85.7612 1.62333 85.9449 2.04133 85.9449 2.548C85.9449 3.042 85.7612 3.46 85.3939 3.802C85.0392 4.13133 84.5832 4.296 84.0259 4.296ZM85.6409 5.398V16H82.3919V5.398H85.6409ZM92.8214 16.152C91.7827 16.152 90.8454 15.9303 90.0094 15.487C89.186 15.0437 88.5337 14.4103 88.0524 13.587C87.5837 12.7637 87.3494 11.801 87.3494 10.699C87.3494 9.60967 87.59 8.65333 88.0714 7.83C88.5527 6.994 89.2114 6.35433 90.0474 5.911C90.8834 5.46767 91.8207 5.246 92.8594 5.246C93.898 5.246 94.8354 5.46767 95.6714 5.911C96.5074 6.35433 97.166 6.994 97.6474 7.83C98.1287 8.65333 98.3694 9.60967 98.3694 10.699C98.3694 11.7883 98.1224 12.751 97.6284 13.587C97.147 14.4103 96.482 15.0437 95.6334 15.487C94.7974 15.9303 93.86 16.152 92.8214 16.152ZM92.8214 13.34C93.442 13.34 93.9677 13.112 94.3984 12.656C94.8417 12.2 95.0634 11.5477 95.0634 10.699C95.0634 9.85033 94.848 9.198 94.4174 8.742C93.9994 8.286 93.48 8.058 92.8594 8.058C92.226 8.058 91.7004 8.286 91.2824 8.742C90.8644 9.18533 90.6554 9.83767 90.6554 10.699C90.6554 11.5477 90.858 12.2 91.2634 12.656C91.6814 13.112 92.2007 13.34 92.8214 13.34Z" fill="white"/>
</svg>
