<svg width="16" height="16" viewBox="0 0 16 16" fill="none" xmlns="http://www.w3.org/2000/svg">
<path d="M8 0C12.4177 0 16 3.58232 16 8C16 12.4177 12.4177 16 8 16C3.58232 16 0 12.4177 0 8C0 3.58232 3.58232 0 8 0Z" fill="#0033AD"/>
<path d="M5.55888 7.98672C5.53531 8.38756 5.84352 8.73114 6.24436 8.75304C6.25952 8.75304 6.27299 8.75304 6.28815 8.75304C6.69236 8.75304 7.01741 8.42798 7.01404 8.02377C7.01404 7.61956 6.68899 7.29451 6.28478 7.29788C5.89909 7.29619 5.5791 7.59935 5.55888 7.98672Z" fill="white"/>
<path d="M2.84347 7.79785C2.71379 7.78943 2.60094 7.89049 2.59589 8.02017C2.59084 8.14985 2.68852 8.2627 2.81821 8.26775C2.94789 8.27617 3.05736 8.17512 3.06579 8.04543C3.07421 7.91575 2.97315 7.80627 2.84347 7.79785Z" fill="white"/>
<path d="M5.51288 3.75891C5.62741 3.70164 5.67457 3.5568 5.61731 3.44227C5.56004 3.32775 5.4152 3.28059 5.30067 3.33785C5.18615 3.39512 5.13899 3.53659 5.19625 3.6528C5.25352 3.7707 5.39499 3.81954 5.51288 3.75891C5.51288 3.75891 5.50952 3.75891 5.51288 3.75891Z" fill="white"/>
<path d="M6.25054 5.04748C6.42907 4.95822 6.50149 4.73927 6.41223 4.56075C6.32297 4.38222 6.10402 4.3098 5.92549 4.39906C5.74697 4.48832 5.67454 4.70727 5.76381 4.8858C5.85307 5.06601 6.07202 5.13675 6.25054 5.04748Z" fill="white"/>
<path d="M3.76618 5.93346C3.90429 6.02273 4.08955 5.98567 4.1805 5.84757C4.26976 5.70946 4.23271 5.5242 4.0946 5.43325C3.9565 5.34399 3.77124 5.38104 3.68029 5.51915C3.58766 5.65725 3.62639 5.8442 3.76618 5.93346Z" fill="white"/>
<path d="M4.20788 7.66812C4.00577 7.65633 3.83567 7.80959 3.82388 8.0117C3.81209 8.2138 3.96535 8.38391 4.16746 8.3957C4.36956 8.40749 4.53967 8.25422 4.55146 8.05212C4.56156 7.85338 4.4083 7.67991 4.20788 7.66812Z" fill="white"/>
<path d="M3.80535 10.1103C3.65882 10.1861 3.59819 10.3646 3.67229 10.5145C3.74808 10.661 3.92661 10.7217 4.0765 10.6475C4.22303 10.5718 4.28366 10.3932 4.20956 10.2433C4.13545 10.0968 3.95356 10.0362 3.80535 10.1103Z" fill="white"/>
<path d="M5.21831 6.91708C5.41705 7.04677 5.68315 6.99287 5.80947 6.79245C5.93915 6.59372 5.88526 6.32761 5.68483 6.2013C5.4861 6.07161 5.21999 6.12551 5.09368 6.32593C4.96568 6.52129 5.01957 6.7874 5.21831 6.91708Z" fill="white"/>
<path d="M9.70123 5.0188C9.86797 5.12827 10.0953 5.0828 10.2065 4.91438C10.316 4.74764 10.2705 4.52027 10.1021 4.40911C9.93534 4.29964 9.70797 4.34511 9.59681 4.51353C9.48565 4.68532 9.53113 4.90932 9.70123 5.0188Z" fill="white"/>
<path d="M10.4456 3.73735C10.5551 3.80977 10.6999 3.77777 10.7707 3.66829C10.8431 3.55882 10.8111 3.41398 10.7016 3.34324C10.5922 3.27082 10.4473 3.30282 10.3766 3.40892C10.3058 3.5184 10.3378 3.66492 10.4456 3.73735Z" fill="white"/>
<path d="M9.75391 7.29082C9.35307 7.26724 9.00781 7.57545 8.9876 7.97629C8.96402 8.37713 9.27223 8.7224 9.67307 8.74261C9.68823 8.74261 9.7017 8.74261 9.71349 8.74261C10.1143 8.74261 10.4394 8.41755 10.4394 8.01334C10.4428 7.63103 10.1413 7.31103 9.75391 7.29082Z" fill="white"/>
<path d="M6.48966 6.86489C6.6143 7.1091 6.86524 7.26574 7.14145 7.26574C7.5423 7.26574 7.86735 6.94068 7.86735 6.53647C7.86735 6.42363 7.84209 6.31079 7.78987 6.20805C7.60798 5.84763 7.17009 5.70279 6.81303 5.88468C6.45261 6.06826 6.30777 6.50784 6.48966 6.86489Z" fill="white"/>
<path d="M12.1934 5.9337C12.3399 5.85791 12.3989 5.6777 12.3231 5.52949C12.249 5.38297 12.0671 5.32402 11.9189 5.39981C11.7723 5.4756 11.7134 5.65412 11.7858 5.80065C11.865 5.94718 12.0452 6.00781 12.1934 5.9337Z" fill="white"/>
<path d="M10.3491 6.1644C10.1386 6.27051 10.0527 6.52819 10.1588 6.73872C10.2649 6.94925 10.5226 7.03514 10.7331 6.92904C10.9436 6.82293 11.0295 6.56525 10.9234 6.35472C10.8156 6.14419 10.5596 6.05998 10.3491 6.1644Z" fill="white"/>
<path d="M7.97084 3.62782C8.1359 3.63624 8.27569 3.50992 8.28748 3.34487C8.29927 3.17982 8.16958 3.04003 8.00453 3.02824C7.83948 3.01982 7.69969 3.14277 7.6879 3.30782C7.67948 3.47456 7.80579 3.61603 7.97084 3.62782Z" fill="white"/>
<path d="M7.96907 5.50907C8.20486 5.52423 8.40697 5.34234 8.41876 5.10486C8.43391 4.86907 8.25202 4.66697 8.01455 4.65518C7.77876 4.64002 7.57665 4.82192 7.56486 5.05939C7.55476 5.29686 7.73328 5.49729 7.96907 5.50907Z" fill="white"/>
<path d="M5.65108 9.87948C5.86161 9.77338 5.9475 9.51569 5.84139 9.30517C5.73529 9.09464 5.47761 9.00874 5.26708 9.11485C5.05655 9.22096 4.97066 9.47864 5.07676 9.68917C5.18455 9.89969 5.44055 9.98559 5.65108 9.87948Z" fill="white"/>
<path d="M8.24545 6.13555C8.0265 6.47239 8.11913 6.92208 8.45597 7.14102C8.79282 7.35997 9.2425 7.26734 9.46145 6.9305C9.68039 6.59366 9.58776 6.14397 9.25092 5.92502C9.13303 5.84755 8.99492 5.80713 8.85345 5.80713C8.60755 5.80713 8.38018 5.93008 8.24545 6.13555Z" fill="white"/>
<path d="M9.51058 9.17876C9.32868 8.81833 8.89079 8.67349 8.53374 8.85539C8.17331 9.03728 8.02847 9.47518 8.21037 9.83223C8.39226 10.1926 8.83016 10.3375 9.18721 10.1556C9.54426 9.97707 9.69247 9.54423 9.51226 9.18381C9.51395 9.18212 9.51395 9.18212 9.51058 9.17876Z" fill="white"/>
<path d="M10.7827 9.12659C10.584 8.9969 10.3178 9.0508 10.1915 9.25122C10.0618 9.44996 10.1157 9.71606 10.3162 9.84238C10.5149 9.97206 10.781 9.91817 10.9073 9.71775C11.0353 9.52238 10.9814 9.25627 10.7827 9.12659Z" fill="white"/>
<path d="M12.1765 8.03552C12.1882 7.83341 12.035 7.66331 11.8329 7.65152C11.6308 7.63973 11.4607 7.79299 11.4489 7.9951C11.4371 8.1972 11.5904 8.36731 11.7925 8.3791C11.9929 8.3892 12.1647 8.23425 12.1765 8.03552Z" fill="white"/>
<path d="M13.1833 7.77588C13.0536 7.76746 12.9408 7.86851 12.9357 7.9982C12.9307 8.12788 13.0284 8.24072 13.158 8.24578C13.2877 8.2542 13.3972 8.15314 13.4056 8.02346C13.4124 7.89378 13.3147 7.7843 13.1833 7.77588Z" fill="white"/>
<path d="M12.2333 10.1105C12.0952 10.0212 11.9099 10.0583 11.819 10.1964C11.7297 10.3345 11.7668 10.5198 11.9049 10.6107C12.043 10.7 12.2283 10.6629 12.3192 10.5248C12.4118 10.3867 12.3731 10.1998 12.2333 10.1105Z" fill="white"/>
<path d="M5.55355 12.3066C5.44407 12.2342 5.29923 12.2662 5.22849 12.3723C5.15607 12.4818 5.18807 12.6266 5.29418 12.6974C5.40365 12.7698 5.54849 12.7378 5.61923 12.6317C5.69502 12.5256 5.66302 12.379 5.55355 12.3066Z" fill="white"/>
<path d="M10.4882 12.2844C10.3736 12.3417 10.3265 12.4865 10.3838 12.601C10.441 12.7156 10.5859 12.7627 10.7004 12.7055C10.8149 12.6482 10.8621 12.5067 10.8048 12.3905C10.7475 12.2726 10.6061 12.2238 10.4882 12.2844C10.4915 12.2844 10.4882 12.2844 10.4882 12.2844Z" fill="white"/>
<path d="M7.75244 9.9081C7.97138 9.57125 7.87875 9.12157 7.54191 8.89926C7.20507 8.68031 6.75538 8.77294 6.53307 9.10978C6.31075 9.44662 6.40675 9.89631 6.74359 10.1186C6.86149 10.1961 6.99959 10.2365 7.14107 10.2365C7.39033 10.2399 7.6177 10.1153 7.75244 9.9081Z" fill="white"/>
<path d="M6.29914 11.0248C6.1324 10.9154 5.90504 10.9608 5.79388 11.1293C5.6844 11.296 5.72988 11.5234 5.8983 11.6345C6.06504 11.744 6.2924 11.6985 6.40356 11.5301C6.5164 11.3617 6.46925 11.1343 6.29914 11.0248Z" fill="white"/>
<path d="M7.99804 12.4159C7.83299 12.4075 7.6932 12.5338 7.68141 12.6989C7.66962 12.8639 7.7993 13.0037 7.96436 13.0155C8.12941 13.0239 8.2692 12.901 8.28099 12.7359C8.28941 12.5692 8.16309 12.4277 7.99804 12.4159Z" fill="white"/>
<path d="M7.9994 10.5351C7.76361 10.5199 7.5615 10.7018 7.54971 10.9393C7.53455 11.1751 7.71645 11.3772 7.95392 11.389C8.18971 11.4007 8.39182 11.2222 8.40361 10.9847C8.41708 10.7506 8.23518 10.5469 7.9994 10.5351Z" fill="white"/>
<path d="M9.7495 10.9961C9.57097 11.0887 9.49855 11.3076 9.59118 11.4862C9.68381 11.6647 9.90276 11.7371 10.0813 11.6445C10.2598 11.5552 10.3322 11.3363 10.243 11.1577C10.1503 10.9775 9.93139 10.9034 9.7495 10.9961Z" fill="white"/>
</svg>
