<svg width="36" height="36" viewBox="0 0 36 36" fill="none" xmlns="http://www.w3.org/2000/svg">
<circle cx="18" cy="18" r="17.5" fill="#a3a3a3" stroke="white"/>
<path d="M17.9996 18.6429C15.2825 18.6429 13.071 16.4314 13.071 13.7143C13.071 10.9971 15.2825 8.78572 17.9996 8.78572C20.7168 8.78572 22.9282 10.9971 22.9282 13.7143C22.9282 16.4314 20.7168 18.6429 17.9996 18.6429ZM17.9996 10.0714C15.9939 10.0714 14.3568 11.7086 14.3568 13.7143C14.3568 15.72 15.9939 17.3572 17.9996 17.3572C20.0053 17.3572 21.6425 15.72 21.6425 13.7143C21.6425 11.7086 20.0053 10.0714 17.9996 10.0714Z" fill="#ffffff"/>
<path d="M25.3625 27.2143C25.011 27.2143 24.7196 26.9229 24.7196 26.5714C24.7196 23.6143 21.7025 21.2143 17.9996 21.2143C14.2968 21.2143 11.2796 23.6143 11.2796 26.5714C11.2796 26.9229 10.9882 27.2143 10.6368 27.2143C10.2853 27.2143 9.9939 26.9229 9.9939 26.5714C9.9939 22.9114 13.5853 19.9286 17.9996 19.9286C22.4139 19.9286 26.0053 22.9114 26.0053 26.5714C26.0053 26.9229 25.7139 27.2143 25.3625 27.2143Z" fill="#ffffff"/>
</svg>
