<svg width="24" height="24" viewBox="0 0 24 24" fill="none" xmlns="http://www.w3.org/2000/svg">
<path d="M10.3999 15.2405V13.5998H2.54376C2.78616 15.0358 3.34056 16.3625 4.14384 17.5061C5.92272 16.2125 8.07024 15.3938 10.3999 15.2405Z" fill="white"/>
<path d="M10.3999 21.456V16.8406C8.45787 16.9889 6.66867 17.675 5.17035 18.7421C6.55539 20.1451 8.37027 21.114 10.3999 21.456Z" fill="white"/>
<path d="M12 10.3594V12H21.6C21.6 10.0015 20.9882 8.14512 19.943 6.60936C17.9251 8.7516 15.125 10.1532 12 10.3594Z" fill="white"/>
<path d="M2.40002 12H10.3999V10.3594C7.77362 10.1858 5.38442 9.1608 3.48818 7.57032C2.79674 8.8968 2.40002 10.3999 2.40002 12Z" fill="white"/>
<path d="M12 16.8406V21.6C14.3126 21.6 16.4328 20.7811 18.0898 19.4203C16.4414 17.9626 14.329 17.017 12 16.8406Z" fill="white"/>
<path d="M12 13.5998V15.2405C14.7744 15.4234 17.2891 16.5516 19.2312 18.3C20.3695 16.9951 21.1562 15.3811 21.4562 13.5998H12Z" fill="white"/>
<path d="M4.35242 6.21408C5.99474 7.65144 8.09066 8.58288 10.3999 8.75928V2.54376C7.93826 2.95776 5.79842 4.30464 4.35242 6.21408Z" fill="white"/>
<path d="M18.9187 5.35464C17.172 3.53568 14.7211 2.4 12 2.4V8.75928C14.7415 8.55 17.1821 7.27632 18.9187 5.35464Z" fill="white"/>
</svg>
