<svg width="20" height="20" viewBox="0 0 20 20" fill="none" xmlns="http://www.w3.org/2000/svg">
<path d="M17.0712 2.92875C15.1825 1.04 12.6713 0 10 0C7.32875 0 4.8175 1.04 2.92875 2.92875C1.04 4.8175 0 7.32875 0 10C0 12.6713 1.04 15.1825 2.92875 17.0712C4.8175 18.96 7.32875 20 10 20C12.6713 20 15.1825 18.96 17.0712 17.0712C18.96 15.1825 20 12.6713 20 10C20 7.32875 18.96 4.8175 17.0712 2.92875ZM18.7188 9.3475C16.965 8.9225 15.3637 8.0825 14.0112 6.8725L16.6075 4.27625C17.8463 5.7025 18.58 7.46375 18.7188 9.3475ZM15.7238 3.3925L13.1275 5.98875C11.9175 4.63625 11.0775 3.035 10.6525 1.28125C12.5363 1.42 14.2975 2.1525 15.7238 3.3925ZM9.3675 1.28125C9.82 3.37125 10.8038 5.28 12.2437 6.8725L10 9.11625L4.27625 3.3925C5.7075 2.14875 7.47625 1.415 9.3675 1.28125ZM3.3925 4.27625L9.11625 10L6.8725 12.2437C5.28 10.8038 3.3725 9.82 1.28125 9.3675C1.415 7.4775 2.14875 5.7075 3.3925 4.27625ZM1.28125 10.6525C3.03375 11.0775 4.635 11.9175 5.98875 13.1275L3.3925 15.7238C2.15375 14.2975 1.42 12.5363 1.28125 10.6525ZM4.27625 16.6075L6.8725 14.0112C8.0825 15.3637 8.9225 16.965 9.3475 18.7188C7.46375 18.58 5.7025 17.8475 4.27625 16.6075ZM10.6325 18.7188C10.18 16.6287 9.19625 14.72 7.75625 13.1275L10 10.8837L15.7238 16.6075C14.2925 17.8512 12.5237 18.585 10.6325 18.7188ZM16.6075 15.7238L10.8837 10L13.1275 7.75625C14.72 9.19625 16.6275 10.18 18.7188 10.6325C18.585 12.5225 17.8512 14.2925 16.6075 15.7238Z" fill="white"/>
</svg>
