<svg width="20" height="20" viewBox="0 0 20 20" fill="none" xmlns="http://www.w3.org/2000/svg">
<g clip-path="url(#clip0_1525_38715)">
<path d="M-0.000122424 14.042C0.414535 12.9653 1.34993 12.2628 2.12138 11.4507C2.61318 10.9398 2.7289 10.4927 2.57461 9.8175C2.12138 7.78283 2.45889 5.81203 3.41357 3.94159C3.68358 3.41239 4.03074 2.91057 4.38753 2.41787C5.429 0.967138 7.03941 0.702539 8.57268 1.70619C8.99698 1.35035 9.42128 0.99451 9.85523 0.647794C10.7617 -0.0821327 11.7549 -0.191622 12.8446 0.255459C16.2197 1.64232 18.5245 3.97809 19.7781 7.24451C20.1445 8.19342 20.0481 9.0967 19.5081 9.97261C17.4348 13.3303 14.4454 15.6113 10.5303 16.8157C10.3181 16.8795 10.106 17.0073 9.95166 17.1533C9.19949 17.865 8.47625 18.5949 7.73372 19.3066C6.82726 20.1825 5.72794 20.2098 4.76362 19.3704C3.38464 18.166 1.98638 16.9799 0.636329 15.7482C0.33739 15.4744 0.202385 15.0456 -0.00976562 14.6806C-0.000122424 14.4799 -0.000122424 14.2609 -0.000122424 14.042ZM7.49264 2.97444C7.16478 2.57298 6.32582 2.60947 5.90152 3.13867C4.86005 4.43429 4.24289 5.8759 4.09824 7.50911C4.02109 8.41239 4.12717 9.28831 4.33932 10.1642C4.37789 10.3102 4.44539 10.4836 4.56111 10.5839C6.28724 12.1076 8.03266 13.6314 9.7588 15.1551C9.90344 15.2828 10.0288 15.3102 10.2217 15.2463C13.6643 14.1423 16.2872 12.0894 18.1002 9.10582C18.322 8.74086 18.3991 8.36677 18.2448 7.96531C18.1002 7.5821 17.9555 7.19889 17.7723 6.83393C16.5669 4.43429 14.6575 2.72809 12.0635 1.69706C11.6971 1.55108 11.3596 1.57845 11.0413 1.80655C10.077 2.46349 9.28628 3.28466 8.76555 4.29743C8.50518 4.80838 8.32196 5.35582 8.10981 5.89414C7.88802 6.43247 7.31907 6.6332 6.84655 6.34123C6.50904 6.1405 6.37403 5.76641 6.54761 5.3102C6.82726 4.53466 7.16478 3.77736 7.49264 2.97444ZM8.53411 16.2409C6.93334 14.8449 5.35185 13.458 3.76073 12.062C3.10499 12.7646 2.47818 13.4398 1.85137 14.1058C1.65851 14.3157 1.63922 14.4982 1.8803 14.6898C2.27567 15.0182 2.65176 15.3558 3.03749 15.6934C3.98252 16.5237 4.9372 17.354 5.88223 18.1843C6.07509 18.3485 6.25831 18.458 6.48011 18.2482C7.16478 17.5821 7.8398 16.9252 8.53411 16.2409Z" fill="white" fill-opacity="0.5"/>
<path d="M7.24125 16.2591C7.18339 16.3686 7.15446 16.478 7.07732 16.5602C6.90374 16.7518 6.72052 16.9434 6.5373 17.1259C6.32515 17.3357 6.09371 17.3631 5.86227 17.1624C4.88831 16.3229 3.92399 15.4744 2.95967 14.6259C2.75716 14.4525 2.73788 14.2426 2.9211 14.0419C3.11396 13.8321 3.30682 13.6313 3.50933 13.4306C3.7022 13.2481 3.92399 13.239 4.1265 13.4124C5.10046 14.2609 6.08407 15.1186 7.04839 15.9762C7.14482 16.0401 7.18339 16.1587 7.24125 16.2591Z" fill="white" fill-opacity="0.5"/>
</g>
<defs>
<clipPath id="clip0_1525_38715">
<rect width="20" height="20" fill="white"/>
</clipPath>
</defs>
</svg>
