<svg width="16" height="16" viewBox="0 0 16 16" fill="none" xmlns="http://www.w3.org/2000/svg">
    <path d="M11.3965 14.9674H4.60386C2.78905 14.9674 1.63534 13.885 1.53164 12.0767L1.1946 6.72945C1.14275 5.91926 1.42145 5.14149 1.97886 4.55167C2.52979 3.96186 3.30757 3.62482 4.11127 3.62482C4.31868 3.62482 4.5196 3.50167 4.61682 3.30723L5.08349 2.38037C5.4659 1.62204 6.42516 1.03223 7.26127 1.03223H8.74553C9.58164 1.03223 10.5344 1.62204 10.9168 2.37389L11.3835 3.32019C11.4807 3.50167 11.6752 3.62482 11.889 3.62482C12.6927 3.62482 13.4705 3.96186 14.0215 4.55167C14.5789 5.14797 14.8576 5.91926 14.8057 6.72945L14.4687 12.0832C14.352 13.9174 13.2307 14.9674 11.3965 14.9674ZM7.26127 2.00445C6.78164 2.00445 6.17238 2.38037 5.95201 2.81463L5.48534 3.74797C5.21312 4.27297 4.68812 4.59704 4.11127 4.59704C3.56682 4.59704 3.06127 4.81741 2.68534 5.21278C2.3159 5.60815 2.12794 6.12667 2.16682 6.66463L2.50386 12.0183C2.58164 13.3276 3.28812 13.9952 4.60386 13.9952H11.3965C12.7057 13.9952 13.4122 13.3276 13.4965 12.0183L13.8335 6.66463C13.8659 6.12667 13.6844 5.60815 13.315 5.21278C12.939 4.81741 12.4335 4.59704 11.889 4.59704C11.3122 4.59704 10.7872 4.27297 10.515 3.76093L10.0418 2.81463C9.82793 2.38686 9.21868 2.01093 8.73905 2.01093H7.26127V2.00445Z" fill="white"/>
    <path d="M8.97206 5.89361H7.02761C6.76187 5.89361 6.5415 5.67324 6.5415 5.4075C6.5415 5.14176 6.76187 4.92139 7.02761 4.92139H8.97206C9.2378 4.92139 9.45817 5.14176 9.45817 5.4075C9.45817 5.67324 9.2378 5.89361 8.97206 5.89361Z" fill="white"/>
    <path d="M7.99982 12.3751C6.56741 12.3751 5.40723 11.2149 5.40723 9.78253C5.40723 8.35013 6.56741 7.18994 7.99982 7.18994C9.43223 7.18994 10.5924 8.35013 10.5924 9.78253C10.5924 11.2149 9.43223 12.3751 7.99982 12.3751ZM7.99982 8.16216C7.10537 8.16216 6.37945 8.88809 6.37945 9.78253C6.37945 10.677 7.10537 11.4029 7.99982 11.4029C8.89426 11.4029 9.62019 10.677 9.62019 9.78253C9.62019 8.88809 8.89426 8.16216 7.99982 8.16216Z" fill="white"/>
</svg>
