<svg width="12" height="12" viewBox="0 0 12 12" fill="none" xmlns="http://www.w3.org/2000/svg">
<path fill-rule="evenodd" clip-rule="evenodd" d="M7.27505 6.00009L11.7385 1.53665C12.0871 1.18809 12.0871 0.609986 11.7385 0.261423C11.3899 -0.0871399 10.8118 -0.0871403 10.4633 0.261422L5.99982 4.72486L1.53665 0.26169C1.18809 -0.0868732 0.609985 -0.0868732 0.261422 0.26169C-0.0871407 0.610253 -0.0871407 1.18836 0.261422 1.53692L4.72459 6.00009L0.261422 10.4633C-0.0871407 10.8118 -0.0871407 11.3899 0.261422 11.7385C0.609985 12.0871 1.18809 12.0871 1.53665 11.7385L5.99982 7.27532L10.4633 11.7388C10.8118 12.0873 11.3899 12.0873 11.7385 11.7388C12.0871 11.3902 12.0871 10.8121 11.7385 10.4635L7.27505 6.00009Z" fill="white"/>
</svg>
