<svg width="17" height="17" viewBox="0 0 17 17" fill="none" xmlns="http://www.w3.org/2000/svg">
<path fill-rule="evenodd" clip-rule="evenodd" d="M4.33398 8.43335C4.61013 8.43335 4.83398 8.65721 4.83398 8.93335C4.83398 10.6417 6.44374 12 8.66732 12C10.8909 12 12.5007 10.6417 12.5007 8.93335C12.5007 8.65721 12.7245 8.43335 13.0007 8.43335C13.2768 8.43335 13.5007 8.65721 13.5007 8.93335V11.4C13.5007 13.8196 11.2687 15.6667 8.66732 15.6667C8.39118 15.6667 8.16732 15.4428 8.16732 15.1667C8.16732 14.8905 8.39118 14.6667 8.66732 14.6667C10.8254 14.6667 12.4595 13.1782 12.4999 11.4649C11.598 12.4346 10.1839 13 8.66732 13C7.1507 13 5.73661 12.4346 4.83473 11.4649C4.85615 12.4009 5.34014 13.2542 6.13305 13.846C6.35435 14.0112 6.39985 14.3245 6.23468 14.5458C6.06951 14.7671 5.75621 14.8126 5.53491 14.6474C4.50612 13.8795 3.83398 12.7186 3.83398 11.4V8.93335C3.83398 8.65721 4.05784 8.43335 4.33398 8.43335Z" fill="white" fill-opacity="0.8"/>
<path fill-rule="evenodd" clip-rule="evenodd" d="M8.66732 2.33331C7.58388 2.33331 6.62181 2.71231 5.92945 3.31666L5.92921 3.31687C5.24318 3.91495 4.83398 4.7232 4.83398 5.59998C4.83398 6.11297 4.97439 6.58298 5.22063 6.98592L5.22123 6.9869C5.8252 7.98036 7.10938 8.66665 8.66732 8.66665C10.2253 8.66665 11.5094 7.98036 12.1134 6.9869L12.114 6.98592C12.3602 6.58298 12.5007 6.11297 12.5007 5.59998C12.5007 4.72421 12.0923 3.91564 11.4053 3.31009C10.7123 2.71181 9.74996 2.33331 8.66732 2.33331ZM5.27208 2.56309C6.15303 1.79423 7.35087 1.33331 8.66732 1.33331C9.98378 1.33331 11.1808 1.79419 12.061 2.55505L12.0644 2.55801L12.0644 2.55802C12.9363 3.32565 13.5007 4.39646 13.5007 5.59998C13.5007 6.30012 13.3078 6.94993 12.9676 7.50688C12.1448 8.85979 10.4958 9.66665 8.66732 9.66665C6.83885 9.66665 5.1899 8.85982 4.36709 7.50695C4.02682 6.94998 3.83398 6.30015 3.83398 5.59998C3.83398 4.39687 4.39801 3.3252 5.27185 2.5633" fill="white" fill-opacity="0.8"/>
<path fill-rule="evenodd" clip-rule="evenodd" d="M8.66732 2.33331C6.48206 2.33331 4.83398 3.85959 4.83398 5.59998V8.93331C4.83398 10.6416 6.44374 12 8.66732 12C10.8909 12 12.5007 10.6416 12.5007 8.93331V5.59998C12.5007 4.72421 12.0923 3.91564 11.4053 3.31009C10.7123 2.71181 9.74996 2.33331 8.66732 2.33331ZM3.83398 5.59998C3.83398 3.18037 6.0659 1.33331 8.66732 1.33331C9.98378 1.33331 11.1808 1.79419 12.061 2.55505L12.0644 2.55801L12.0644 2.55802C12.9363 3.32565 13.5007 4.39647 13.5007 5.59998V8.93331C13.5007 11.385 11.2304 13 8.66732 13C6.10423 13 3.83398 11.385 3.83398 8.93331V5.59998Z" fill="white" fill-opacity="0.8"/>
</svg>
