<svg width="16" height="15" viewBox="0 0 16 15" fill="none" xmlns="http://www.w3.org/2000/svg">
<path fill-rule="evenodd" clip-rule="evenodd" d="M6.125 8.125V7.5C6.125 7.00272 6.32254 6.52581 6.67417 6.17417C7.02581 5.82254 7.50272 5.625 8 5.625H8.625V3.54375C8.625 3.43269 8.58088 3.32618 8.50235 3.24765C8.42382 3.16912 8.31731 3.125 8.20625 3.125H4.04375C3.93269 3.125 3.82618 3.16912 3.74765 3.24765C3.66912 3.32618 3.625 3.43269 3.625 3.54375V7.70625C3.625 7.81731 3.66912 7.92382 3.74765 8.00235C3.82618 8.08088 3.93269 8.125 4.04375 8.125H6.125ZM6.125 9.375H4.04375C3.60168 9.37335 3.17818 9.19701 2.86558 8.88442C2.55299 8.57182 2.37665 8.14832 2.375 7.70625V3.54375C2.37665 3.10168 2.55299 2.67818 2.86558 2.36558C3.17818 2.05299 3.60168 1.87665 4.04375 1.875H8.20625C8.64832 1.87665 9.07182 2.05299 9.38442 2.36558C9.69701 2.67818 9.87335 3.10168 9.875 3.54375V5.625H11.75C12.2473 5.625 12.7242 5.82254 13.0758 6.17417C13.4275 6.52581 13.625 7.00272 13.625 7.5V11.25C13.625 11.7473 13.4275 12.2242 13.0758 12.5758C12.7242 12.9275 12.2473 13.125 11.75 13.125H8C7.50272 13.125 7.02581 12.9275 6.67417 12.5758C6.32254 12.2242 6.125 11.7473 6.125 11.25V9.375ZM7.55806 7.05806C7.67527 6.94085 7.83424 6.875 8 6.875H11.75C11.9158 6.875 12.0747 6.94085 12.1919 7.05806C12.3092 7.17527 12.375 7.33424 12.375 7.5V11.25C12.375 11.4158 12.3092 11.5747 12.1919 11.6919C12.0747 11.8092 11.9158 11.875 11.75 11.875H8C7.83424 11.875 7.67527 11.8092 7.55806 11.6919C7.44085 11.5747 7.375 11.4158 7.375 11.25V7.5C7.375 7.33424 7.44085 7.17527 7.55806 7.05806Z" fill="white" fill-opacity="0.5"/>
</svg>
