<svg width="16" height="16" viewBox="0 0 16 16" fill="none" xmlns="http://www.w3.org/2000/svg">
<path d="M7.39967 15.1667H4.59967C1.99301 15.1667 0.833008 14.0067 0.833008 11.4V8.60004C0.833008 5.99337 1.99301 4.83337 4.59967 4.83337H7.39967C10.0063 4.83337 11.1663 5.99337 11.1663 8.60004V11.4C11.1663 14.0067 10.0063 15.1667 7.39967 15.1667ZM4.59967 5.83337C2.53301 5.83337 1.83301 6.53337 1.83301 8.60004V11.4C1.83301 13.4667 2.53301 14.1667 4.59967 14.1667H7.39967C9.46634 14.1667 10.1663 13.4667 10.1663 11.4V8.60004C10.1663 6.53337 9.46634 5.83337 7.39967 5.83337H4.59967Z" fill="#828282"/>
<path d="M11.3997 11.1667H10.6663C10.393 11.1667 10.1663 10.94 10.1663 10.6667V8.60004C10.1663 6.53337 9.46634 5.83337 7.39967 5.83337H5.33301C5.05967 5.83337 4.83301 5.60671 4.83301 5.33337V4.60004C4.83301 1.99337 5.99301 0.833374 8.59967 0.833374H11.3997C14.0063 0.833374 15.1663 1.99337 15.1663 4.60004V7.40004C15.1663 10.0067 14.0063 11.1667 11.3997 11.1667ZM11.1663 10.1667H11.3997C13.4663 10.1667 14.1663 9.46671 14.1663 7.40004V4.60004C14.1663 2.53337 13.4663 1.83337 11.3997 1.83337H8.59967C6.53301 1.83337 5.83301 2.53337 5.83301 4.60004V4.83337H7.39967C10.0063 4.83337 11.1663 5.99337 11.1663 8.60004V10.1667Z" fill="#828282"/>
</svg>
