<svg width="24" height="24" viewBox="0 0 24 24" fill="none" xmlns="http://www.w3.org/2000/svg">
<path d="M9.5002 14.0001H14.5002M16.7002 18.9801H7.3002C6.8802 18.9801 6.4102 18.6501 6.2702 18.2501L2.1302 6.67011C1.5402 5.01011 2.2302 4.50011 3.6502 5.52011L7.5502 8.31011C8.2002 8.76011 8.9402 8.53011 9.2202 7.80011L10.9802 3.11011C11.5402 1.61011 12.4702 1.61011 13.0302 3.11011L14.7902 7.80011C15.0702 8.53011 15.8102 8.76011 16.4502 8.31011L20.1102 5.70011C21.6702 4.58011 22.4202 5.15011 21.7802 6.96011L17.7402 18.2701C17.5902 18.6501 17.1202 18.9801 16.7002 18.9801Z" stroke="white" stroke-width="1.5" stroke-linecap="round" stroke-linejoin="round"/>
</svg>
