<svg width="20" height="20" viewBox="0 0 20 20" fill="none" xmlns="http://www.w3.org/2000/svg">
    <path fill-rule="evenodd" clip-rule="evenodd" d="M3.30118 10.1988C4.36677 12.5247 6.63475 14.1917 9.30246 14.3972V15.814H7.20936C5.79541 15.814 4.65123 16.9582 4.65123 18.3722V18.6047H4.41791C4.03652 18.6047 3.72024 18.921 3.72024 19.3024C3.72024 19.6837 4.03652 20 4.41791 20H4.65123V20.0001H15.3489V20H15.5807C15.962 20 16.2783 19.6837 16.2783 19.3024C16.2783 18.921 15.962 18.6047 15.5807 18.6047H15.3489V18.3722C15.3489 16.9582 14.2047 15.814 12.7907 15.814H10.6978V14.37C13.2208 14.0761 15.3524 12.4717 16.391 10.2585C17.0501 9.99604 17.57 9.5686 18.0362 9.18143C18.04 9.17758 18.0519 9.16734 18.0657 9.15534L18.0658 9.15526C18.0854 9.13832 18.109 9.11789 18.1199 9.10701C19.1338 8.09306 19.7199 6.68842 19.7199 5.26517C19.7199 3.54425 18.3617 2.1489 16.6966 2.1489H16.441C15.6679 0.862298 14.2584 0 12.6506 0H7.06926C5.446 0 4.02494 0.878948 3.25681 2.18611H3.02324C1.33023 2.18611 0 3.51633 0 5.20935C0 6.57679 0.53023 7.8698 1.59999 9.05119C2.09717 9.54837 2.67867 9.94174 3.30118 10.1988ZM13.9535 18.6047V18.3722C13.9535 17.7303 13.4326 17.2094 12.7907 17.2094H7.20936C6.5675 17.2094 6.04657 17.7303 6.04657 18.3722V18.6047H13.9535ZM9.85994 13.0232C12.2015 13.0232 14.2211 11.6367 15.1421 9.6404C15.1495 9.56942 15.1682 9.49924 15.199 9.43259C15.5152 8.70702 15.6734 7.93493 15.6734 7.12563V4.36383C15.644 2.72381 14.2974 1.39534 12.6506 1.39534H7.06926C5.42228 1.39534 4.07562 2.72407 4.04649 4.36431V7.06981C4.04649 7.8698 4.20463 8.6512 4.53021 9.39538C4.56851 9.48156 4.5871 9.57211 4.58786 9.66216C5.51346 11.6467 7.52693 13.0232 9.85994 13.0232ZM17.0641 8.17677C17.0421 8.19474 17.0202 8.21272 16.9967 8.23217C17.0445 7.89793 17.0692 7.55641 17.0692 7.20927V4.41859C17.0692 4.39643 17.0691 4.37431 17.0687 4.35223V4.33494C17.0687 4.08378 17.0501 3.82331 17.0036 3.57215C17.7571 3.72099 18.3245 4.42796 18.3245 5.26517C18.3245 6.32563 17.8873 7.36749 17.1431 8.11167C17.1153 8.13488 17.0897 8.15578 17.0642 8.17668L17.0641 8.17677ZM2.65115 4.27912V4.35281C2.65083 4.3747 2.65067 4.39662 2.65067 4.41859V7.20927C2.65067 7.54273 2.67349 7.87102 2.71764 8.19264C2.68027 8.16225 2.64406 8.1307 2.61394 8.09306C1.80464 7.20004 1.39534 6.2233 1.39534 5.20935C1.39534 4.40935 1.94418 3.75819 2.69766 3.60936C2.66976 3.83261 2.65115 4.05587 2.65115 4.27912Z" fill="white"/>
</svg>
