<svg width="10" height="10" viewBox="0 0 10 10" fill="none" xmlns="http://www.w3.org/2000/svg">
    <path d="M5.41693 4.89583C5.33776 4.89583 5.25859 4.86667 5.19609 4.80417C5.07526 4.68333 5.07526 4.48333 5.19609 4.3625L8.61276 0.945834C8.73359 0.825001 8.93359 0.825001 9.05443 0.945834C9.17526 1.06667 9.17526 1.26667 9.05443 1.3875L5.63776 4.80417C5.57526 4.86667 5.49609 4.89583 5.41693 4.89583Z"/>
    <path d="M9.16699 3.14583C8.99616 3.14583 8.85449 3.00416 8.85449 2.83333V1.14583H7.16699C6.99616 1.14583 6.85449 1.00416 6.85449 0.833328C6.85449 0.662495 6.99616 0.520828 7.16699 0.520828H9.16699C9.33783 0.520828 9.47949 0.662495 9.47949 0.833328V2.83333C9.47949 3.00416 9.33783 3.14583 9.16699 3.14583Z"/>
    <path d="M6.24967 9.47916H3.74967C1.48717 9.47916 0.520508 8.5125 0.520508 6.25V3.74999C0.520508 1.4875 1.48717 0.520828 3.74967 0.520828H4.58301C4.75384 0.520828 4.89551 0.662495 4.89551 0.833328C4.89551 1.00416 4.75384 1.14583 4.58301 1.14583H3.74967C1.82884 1.14583 1.14551 1.82916 1.14551 3.74999V6.25C1.14551 8.17083 1.82884 8.85416 3.74967 8.85416H6.24967C8.17051 8.85416 8.85384 8.17083 8.85384 6.25V5.41666C8.85384 5.24583 8.99551 5.10416 9.16634 5.10416C9.33718 5.10416 9.47884 5.24583 9.47884 5.41666V6.25C9.47884 8.5125 8.51217 9.47916 6.24967 9.47916Z"/>
</svg>
