<svg width="24" height="24" viewBox="0 0 24 24" fill="none" xmlns="http://www.w3.org/2000/svg">
<path d="M9.46992 15.28C9.27992 15.28 9.08992 15.21 8.93992 15.06C8.11992 14.24 7.66992 13.15 7.66992 12C7.66992 9.61 9.60992 7.67 11.9999 7.67C13.1499 7.67 14.2399 8.12 15.0599 8.94C15.1999 9.08 15.2799 9.27 15.2799 9.47C15.2799 9.67 15.1999 9.86 15.0599 10L9.99992 15.06C9.84992 15.21 9.65992 15.28 9.46992 15.28ZM11.9999 9.17C10.4399 9.17 9.16992 10.44 9.16992 12C9.16992 12.5 9.29992 12.98 9.53992 13.4L13.3999 9.54C12.9799 9.3 12.4999 9.17 11.9999 9.17Z" fill="white" fill-opacity="0.2"/>
<path d="M5.59984 18.51C5.42984 18.51 5.24984 18.45 5.10984 18.33C4.03984 17.42 3.07984 16.3 2.25984 15C1.19984 13.35 1.19984 10.66 2.25984 9C4.69984 5.18 8.24984 2.98 11.9998 2.98C14.1998 2.98 16.3698 3.74 18.2698 5.17C18.5998 5.42 18.6698 5.89 18.4198 6.22C18.1698 6.55 17.6998 6.62 17.3698 6.37C15.7298 5.13 13.8698 4.48 11.9998 4.48C8.76984 4.48 5.67984 6.42 3.51984 9.81C2.76984 10.98 2.76984 13.02 3.51984 14.19C4.26984 15.36 5.12984 16.37 6.07984 17.19C6.38984 17.46 6.42984 17.93 6.15984 18.25C6.01984 18.42 5.80984 18.51 5.59984 18.51Z" fill="white" fill-opacity="0.2"/>
<path d="M12.0001 21.02C10.6701 21.02 9.37006 20.75 8.12006 20.22C7.74006 20.06 7.56006 19.62 7.72006 19.24C7.88006 18.86 8.32006 18.68 8.70006 18.84C9.76006 19.29 10.8701 19.52 11.9901 19.52C15.2201 19.52 18.3101 17.58 20.4701 14.19C21.2201 13.02 21.2201 10.98 20.4701 9.81C20.1601 9.32 19.8201 8.85 19.4601 8.41C19.2001 8.09 19.2501 7.62 19.5701 7.35C19.8901 7.09 20.3601 7.13 20.6301 7.46C21.0201 7.94 21.4001 8.46 21.7401 9C22.8001 10.65 22.8001 13.34 21.7401 15C19.3001 18.82 15.7501 21.02 12.0001 21.02Z" fill="white" fill-opacity="0.2"/>
<path d="M12.6901 16.27C12.3401 16.27 12.0201 16.02 11.9501 15.66C11.8701 15.25 12.1401 14.86 12.5501 14.79C13.6501 14.59 14.5701 13.67 14.7701 12.57C14.8501 12.16 15.2401 11.9 15.6501 11.97C16.0601 12.05 16.3301 12.44 16.2501 12.85C15.9301 14.58 14.5501 15.95 12.8301 16.27C12.7801 16.26 12.7401 16.27 12.6901 16.27Z" fill="white" fill-opacity="0.2"/>
<path d="M1.99994 22.75C1.80994 22.75 1.61994 22.68 1.46994 22.53C1.17994 22.24 1.17994 21.76 1.46994 21.47L8.93994 14C9.22994 13.71 9.70994 13.71 9.99994 14C10.2899 14.29 10.2899 14.77 9.99994 15.06L2.52994 22.53C2.37994 22.68 2.18994 22.75 1.99994 22.75Z" fill="white" fill-opacity="0.2"/>
<path d="M14.5302 10.22C14.3402 10.22 14.1502 10.15 14.0002 10C13.7102 9.71 13.7102 9.23 14.0002 8.94L21.4702 1.47C21.7602 1.18 22.2402 1.18 22.5302 1.47C22.8202 1.76 22.8202 2.24 22.5302 2.53L15.0602 10C14.9102 10.15 14.7202 10.22 14.5302 10.22Z" fill="white" fill-opacity="0.2"/>
</svg>
