<svg width="8" height="16" viewBox="0 0 8 16" fill="none" xmlns="http://www.w3.org/2000/svg">
<path d="M4.97733 3.31137L5.02771 6.24487L7.67758 6.2051C7.86902 6.2051 8.01007 6.37415 7.97985 6.55314L7.6272 8.45245C7.59698 8.59167 7.47607 8.69111 7.33501 8.70106L5.06801 8.74083L5.18892 15.9503L2.16625 16L2.04534 8.79055L0.332495 8.82038C0.16121 8.82038 0.0302274 8.69111 0.0302274 8.52206L0 6.63269C0 6.46364 0.130983 6.33437 0.302267 6.33437L2.01511 6.30454L1.96474 3.07272C1.95753 2.6808 2.02876 2.29134 2.17434 1.92664C2.31992 1.56194 2.53699 1.22918 2.8131 0.947431C3.08922 0.665679 3.41896 0.440474 3.78342 0.284722C4.14789 0.128969 4.53991 0.0457301 4.93703 0.0397762L7.65743 0C7.82871 0 7.9597 0.129273 7.9597 0.298322L8 2.6849C8 2.85395 7.86902 2.98322 7.69773 2.98322L5.2796 3.023C5.10831 3.01305 4.97733 3.15227 4.97733 3.31137Z" fill="white" fill-opacity="0.5"/>
</svg>
