<svg width="104" height="104" viewBox="0 0 104 104" fill="none" xmlns="http://www.w3.org/2000/svg">
<mask id="mask0_733_36656" style="mask-type:luminance" maskUnits="userSpaceOnUse" x="0" y="0" width="104" height="104">
<path d="M0 7.62939e-06H104V104H0V7.62939e-06Z" fill="white"/>
</mask>
<g mask="url(#mask0_733_36656)">
<path fill-rule="evenodd" clip-rule="evenodd" d="M60.1934 20.3398C61.1858 20.3398 61.9902 19.5354 61.9902 18.543C61.9902 17.0357 63.2121 15.8139 64.7193 15.8139C68.2114 15.8139 71.0422 12.983 71.0422 9.491C71.0422 8.49861 70.2377 7.69412 69.2453 7.69412C68.2529 7.69412 67.4484 8.49861 67.4484 9.491C67.4484 10.9983 66.2266 12.2201 64.7193 12.2201C61.2273 12.2201 58.3965 15.0509 58.3965 18.543C58.3965 19.5354 59.201 20.3398 60.1934 20.3398Z" fill="url(#paint0_linear_733_36656)"/>
<path fill-rule="evenodd" clip-rule="evenodd" d="M74.3389 35.5039C74.3389 36.4963 75.1434 37.3008 76.1357 37.3008C79.7421 37.3008 82.6658 34.377 82.6658 30.7706C82.6658 29.1488 83.9804 27.8343 85.6021 27.8343C86.5945 27.8343 87.399 27.0298 87.399 26.0374C87.399 25.045 86.5945 24.2405 85.6021 24.2405C81.9956 24.2405 79.072 27.1641 79.072 30.7706C79.072 32.3923 77.7572 33.707 76.1357 33.707C75.1434 33.707 74.3389 34.5115 74.3389 35.5039Z" fill="url(#paint1_linear_733_36656)"/>
<path fill-rule="evenodd" clip-rule="evenodd" d="M86.499 40.7666C86.499 43.9422 89.0734 46.5166 92.249 46.5166C95.4246 46.5166 97.9991 43.9422 97.9991 40.7666C97.9991 37.591 95.4246 35.0166 92.249 35.0166C89.0734 35.0166 86.499 37.591 86.499 40.7666ZM92.249 42.9228C91.0582 42.9228 90.0928 41.9574 90.0928 40.7666C90.0928 39.5758 91.0582 38.6103 92.249 38.6103C93.4399 38.6103 94.4053 39.5758 94.4053 40.7666C94.4053 41.9574 93.4399 42.9228 92.249 42.9228Z" fill="url(#paint2_linear_733_36656)"/>
<path fill-rule="evenodd" clip-rule="evenodd" d="M56.8711 30.7707C56.8711 33.9463 59.4455 36.5208 62.6211 36.5208C65.7967 36.5208 68.3711 33.9463 68.3711 30.7707C68.3711 27.5951 65.7967 25.0207 62.6211 25.0207C59.4455 25.0207 56.8711 27.5951 56.8711 30.7707ZM62.6211 32.927C61.4303 32.927 60.4649 31.9616 60.4649 30.7707C60.4649 29.5799 61.4303 28.6145 62.6211 28.6145C63.8119 28.6145 64.7774 29.5799 64.7774 30.7707C64.7774 31.9616 63.8119 32.927 62.6211 32.927Z" fill="url(#paint3_linear_733_36656)"/>
<path fill-rule="evenodd" clip-rule="evenodd" d="M23.25 11.7502C23.25 14.9258 25.8244 17.5002 29 17.5002C32.1756 17.5002 34.75 14.9258 34.75 11.7502C34.75 8.57463 32.1756 6.00021 29 6.00021C25.8244 6.00021 23.25 8.57463 23.25 11.7502ZM29 13.9065C27.8092 13.9065 26.8438 12.941 26.8438 11.7502C26.8438 10.5594 27.8092 9.59397 29 9.59397C30.1908 9.59397 31.1563 10.5594 31.1563 11.7502C31.1563 12.941 30.1908 13.9065 29 13.9065Z" fill="url(#paint4_linear_733_36656)"/>
<path fill-rule="evenodd" clip-rule="evenodd" d="M89.0038 73.3157C89.7055 72.614 89.7055 71.4763 89.0038 70.7746L87.3097 69.0805C86.6079 68.3788 85.4702 68.3788 84.7685 69.0805C84.0668 69.7822 84.0668 70.9199 84.7685 71.6216L86.4626 73.3157C87.1643 74.0175 88.302 74.0175 89.0038 73.3157Z" fill="url(#paint5_linear_733_36656)"/>
<path fill-rule="evenodd" clip-rule="evenodd" d="M97.4745 81.7862C98.1762 81.0845 98.1762 79.9468 97.4745 79.245L95.7804 77.5509C95.0786 76.8492 93.9409 76.8492 93.2392 77.5509C92.5375 78.2527 92.5375 79.3904 93.2392 80.0921L94.9333 81.7862C95.635 82.4879 96.7727 82.4879 97.4745 81.7862Z" fill="url(#paint6_linear_733_36656)"/>
<path fill-rule="evenodd" clip-rule="evenodd" d="M93.2392 73.3157C93.9409 74.0175 95.0786 74.0175 95.7804 73.3157L97.4745 71.6216C98.1762 70.9199 98.1762 69.7822 97.4745 69.0805C96.7727 68.3788 95.635 68.3788 94.9333 69.0805L93.2392 70.7746C92.5375 71.4763 92.5375 72.614 93.2392 73.3157Z" fill="url(#paint7_linear_733_36656)"/>
<path fill-rule="evenodd" clip-rule="evenodd" d="M84.7685 81.7862C85.4702 82.4879 86.6079 82.4879 87.3097 81.7862L89.0038 80.0921C89.7055 79.3904 89.7055 78.2527 89.0038 77.5509C88.302 76.8492 87.1643 76.8492 86.4626 77.5509L84.7685 79.245C84.0668 79.9468 84.0668 81.0845 84.7685 81.7862Z" fill="url(#paint8_linear_733_36656)"/>
<path fill-rule="evenodd" clip-rule="evenodd" d="M93.2392 10.7618C93.9409 11.4635 95.0786 11.4635 95.7804 10.7618L97.4745 9.06769C98.1762 8.36597 98.1762 7.22825 97.4745 6.52652C96.7727 5.8248 95.635 5.8248 94.9333 6.52652L93.2392 8.22062C92.5375 8.92235 92.5375 10.0601 93.2392 10.7618Z" fill="url(#paint9_linear_733_36656)"/>
<path fill-rule="evenodd" clip-rule="evenodd" d="M84.7685 19.2325C85.4702 19.9342 86.6079 19.9342 87.3097 19.2325L89.0038 17.5384C89.7055 16.8367 89.7055 15.6989 89.0038 14.9972C88.302 14.2955 87.1643 14.2955 86.4626 14.9972L84.7685 16.6913C84.0668 17.393 84.0668 18.5308 84.7685 19.2325Z" fill="url(#paint10_linear_733_36656)"/>
<path fill-rule="evenodd" clip-rule="evenodd" d="M97.4745 19.2323C98.1762 18.5305 98.1762 17.3928 97.4745 16.6911L95.7804 14.997C95.0786 14.2953 93.9409 14.2953 93.2392 14.997C92.5375 15.6987 92.5375 16.8364 93.2392 17.5382L94.9333 19.2323C95.635 19.934 96.7727 19.934 97.4745 19.2323Z" fill="url(#paint11_linear_733_36656)"/>
<path fill-rule="evenodd" clip-rule="evenodd" d="M89.0038 10.7618C89.7055 10.0601 89.7055 8.92235 89.0038 8.22062L87.3097 6.52652C86.6079 5.8248 85.4702 5.8248 84.7685 6.52652C84.0668 7.22825 84.0668 8.36597 84.7685 9.06769L86.4626 10.7618C87.1643 11.4635 88.302 11.4635 89.0038 10.7618Z" fill="url(#paint12_linear_733_36656)"/>
<path fill-rule="evenodd" clip-rule="evenodd" d="M11.9349 97.7246L11.9349 97.7246C8.40932 99.017 4.98437 95.5927 6.27691 92.0668L6.27692 92.0667L11.4264 78.0187C11.4308 78.0065 11.4352 77.9943 11.4398 77.9821L28.1667 32.3507C29.2754 29.3262 33.1474 28.4726 35.4252 30.7503L43.0491 38.3743C47.5945 31.9447 48.4312 23.2509 44.4866 15.8277C44.0209 14.9513 44.3538 13.8634 45.2301 13.3977C46.1065 12.932 47.1944 13.2649 47.6601 14.1413C52.3682 23.0013 51.2367 33.4045 45.622 40.9472L57.1891 52.5143L61.9299 47.7736C62.6316 47.0718 63.7693 47.0718 64.471 47.7736C65.1728 48.4753 65.1728 49.613 64.471 50.3147L59.7303 55.0555L62.6335 57.9588C71.1491 50.9679 83.3674 49.3616 93.7084 54.8569C94.5848 55.3226 94.9177 56.4105 94.452 57.2869C93.9863 58.1632 92.8984 58.4961 92.022 58.0304C83.1159 53.2976 72.6064 54.6016 65.1887 60.514L73.2511 68.5765C75.5289 70.8542 74.6752 74.7261 71.6508 75.8348L26.0456 92.5521C26.0163 92.5637 25.9868 92.5745 25.957 92.5845L11.9349 97.7246ZM55.9598 56.3673L70.71 71.1176C71.1314 71.5391 70.9735 72.2554 70.4139 72.4606L59.3661 76.5103L49.1458 66.29C48.444 65.5883 47.3063 65.5883 46.6046 66.29C45.9029 66.9918 45.9029 68.1295 46.6046 68.8312L55.647 77.8736L50.586 79.7288L24.2727 53.4155L26.1278 48.3547L35.1691 57.396C35.8708 58.0977 37.0085 58.0977 37.7102 57.396C38.412 56.6943 38.412 55.5565 37.7102 54.8548L27.4911 44.6356L31.5409 33.5876C31.746 33.028 32.4625 32.87 32.884 33.2915L41.8984 42.3059C41.928 42.3377 41.9589 42.3686 41.9911 42.3986L55.8773 56.2848C55.8905 56.299 55.9041 56.3129 55.9179 56.3267C55.9317 56.3405 55.9456 56.3541 55.9598 56.3673ZM22.1217 90.1628L10.698 94.3504L10.698 94.3504C10.0455 94.5896 9.41203 93.9558 9.6511 93.3037L9.65111 93.3036L13.8387 81.8798L22.1217 90.1628ZM15.202 78.1607L17.0571 73.0999L30.9016 86.9444L25.8408 88.7995L15.202 78.1607ZM46.8669 81.0921L34.6207 85.5811L18.4204 69.3808L22.9094 57.1346L46.8669 81.0921Z" fill="url(#paint13_linear_733_36656)"/>
<path fill-rule="evenodd" clip-rule="evenodd" d="M67.0702 45.1734C67.772 45.8751 68.9097 45.8751 69.6114 45.1734L70.9141 43.8707C71.6159 43.1689 71.6159 42.0312 70.9141 41.3295C70.2124 40.6278 69.0747 40.6278 68.373 41.3295L67.0702 42.6322C66.3685 43.334 66.3685 44.4717 67.0702 45.1734Z" fill="url(#paint14_linear_733_36656)"/>
</g>
<defs>
<linearGradient id="paint0_linear_733_36656" x1="58.3965" y1="7.69412" x2="71.6873" y2="8.41293" gradientUnits="userSpaceOnUse">
<stop stop-color="#225FED"/>
<stop offset="1" stop-color="#712EFF"/>
</linearGradient>
<linearGradient id="paint1_linear_733_36656" x1="74.3389" y1="24.2405" x2="88.0651" y2="24.9829" gradientUnits="userSpaceOnUse">
<stop stop-color="#225FED"/>
<stop offset="1" stop-color="#712EFF"/>
</linearGradient>
<linearGradient id="paint2_linear_733_36656" x1="86.499" y1="35.0166" x2="98.5857" y2="35.6703" gradientUnits="userSpaceOnUse">
<stop stop-color="#225FED"/>
<stop offset="1" stop-color="#712EFF"/>
</linearGradient>
<linearGradient id="paint3_linear_733_36656" x1="56.8711" y1="25.0207" x2="68.9577" y2="25.6744" gradientUnits="userSpaceOnUse">
<stop stop-color="#225FED"/>
<stop offset="1" stop-color="#712EFF"/>
</linearGradient>
<linearGradient id="paint4_linear_733_36656" x1="23.25" y1="6.00021" x2="35.3366" y2="6.6539" gradientUnits="userSpaceOnUse">
<stop stop-color="#225FED"/>
<stop offset="1" stop-color="#712EFF"/>
</linearGradient>
<linearGradient id="paint5_linear_733_36656" x1="84.2422" y1="68.5542" x2="89.7998" y2="68.8548" gradientUnits="userSpaceOnUse">
<stop stop-color="#225FED"/>
<stop offset="1" stop-color="#712EFF"/>
</linearGradient>
<linearGradient id="paint6_linear_733_36656" x1="92.7129" y1="77.0246" x2="98.2705" y2="77.3252" gradientUnits="userSpaceOnUse">
<stop stop-color="#225FED"/>
<stop offset="1" stop-color="#712EFF"/>
</linearGradient>
<linearGradient id="paint7_linear_733_36656" x1="92.7129" y1="68.5542" x2="98.2705" y2="68.8548" gradientUnits="userSpaceOnUse">
<stop stop-color="#225FED"/>
<stop offset="1" stop-color="#712EFF"/>
</linearGradient>
<linearGradient id="paint8_linear_733_36656" x1="84.2422" y1="77.0246" x2="89.7998" y2="77.3252" gradientUnits="userSpaceOnUse">
<stop stop-color="#225FED"/>
<stop offset="1" stop-color="#712EFF"/>
</linearGradient>
<linearGradient id="paint9_linear_733_36656" x1="92.7129" y1="6.00023" x2="98.2705" y2="6.3008" gradientUnits="userSpaceOnUse">
<stop stop-color="#225FED"/>
<stop offset="1" stop-color="#712EFF"/>
</linearGradient>
<linearGradient id="paint10_linear_733_36656" x1="84.2422" y1="14.4709" x2="89.7998" y2="14.7715" gradientUnits="userSpaceOnUse">
<stop stop-color="#225FED"/>
<stop offset="1" stop-color="#712EFF"/>
</linearGradient>
<linearGradient id="paint11_linear_733_36656" x1="92.7129" y1="14.4707" x2="98.2705" y2="14.7713" gradientUnits="userSpaceOnUse">
<stop stop-color="#225FED"/>
<stop offset="1" stop-color="#712EFF"/>
</linearGradient>
<linearGradient id="paint12_linear_733_36656" x1="84.2422" y1="6.00023" x2="89.7998" y2="6.3008" gradientUnits="userSpaceOnUse">
<stop stop-color="#225FED"/>
<stop offset="1" stop-color="#712EFF"/>
</linearGradient>
<linearGradient id="paint13_linear_733_36656" x1="5.99805" y1="13.1872" x2="99.1599" y2="18.4543" gradientUnits="userSpaceOnUse">
<stop stop-color="#225FED"/>
<stop offset="1" stop-color="#712EFF"/>
</linearGradient>
<linearGradient id="paint14_linear_733_36656" x1="66.5439" y1="40.8032" x2="71.6902" y2="41.0815" gradientUnits="userSpaceOnUse">
<stop stop-color="#225FED"/>
<stop offset="1" stop-color="#712EFF"/>
</linearGradient>
</defs>
</svg>
