<svg width="18" height="22" viewBox="0 0 18 22" fill="none" xmlns="http://www.w3.org/2000/svg">
    <path d="M6.99002 21.75C6.79002 21.75 6.63002 21.71 6.51002 21.66C6.11002 21.51 5.43002 21.02 5.43002 19.47V13.02H3.09002C1.75002 13.02 1.27002 12.39 1.10002 12.02C0.930017 11.64 0.780017 10.87 1.66002 9.86001L9.23002 1.26001C10.25 0.100006 11.08 0.180006 11.48 0.330006C11.88 0.480006 12.56 0.970006 12.56 2.52001V8.97001H14.9C16.24 8.97001 16.72 9.60001 16.89 9.97001C17.06 10.35 17.21 11.12 16.33 12.13L8.76002 20.73C8.05002 21.54 7.43002 21.75 6.99002 21.75ZM10.93 1.74001C10.9 1.78001 10.69 1.88001 10.36 2.26001L2.79002 10.86C2.51002 11.18 2.47002 11.38 2.47002 11.42C2.49002 11.43 2.67002 11.53 3.09002 11.53H6.18002C6.59002 11.53 6.93002 11.87 6.93002 12.28V19.48C6.93002 19.98 7.02002 20.2 7.06002 20.26C7.09002 20.22 7.30002 20.12 7.63002 19.74L15.2 11.14C15.48 10.82 15.52 10.62 15.52 10.58C15.5 10.57 15.32 10.47 14.9 10.47H11.81C11.4 10.47 11.06 10.13 11.06 9.72001V2.52001C11.07 2.02001 10.97 1.81001 10.93 1.74001Z" fill="white"/>
</svg>
