<svg width="11" height="18" viewBox="0 0 11 18" fill="none" xmlns="http://www.w3.org/2000/svg">
<path d="M10.9942 7.59912C11 8.34269 11 9 11 9.70786C11 11.2753 10.4429 12.3111 9.42067 13.2981C8.03581 14.6351 6.67456 15.9973 5.30375 17.3485C5.12655 17.5226 4.95209 17.7009 4.76943 17.8693C4.54515 18.0758 4.43095 18.0403 4.34335 17.7437C4.32738 17.6878 4.31903 17.63 4.3185 17.5718C4.30259 16.4735 4.2881 15.3751 4.27501 14.2765C4.27327 14.1232 4.2888 13.9696 4.29737 13.8164C4.31477 13.5082 4.45369 13.2692 4.6745 13.0524C5.57711 12.164 6.46793 11.2635 7.36321 10.3676C7.39415 10.3365 7.42682 10.3068 7.45602 10.2741C7.72219 9.97674 7.92386 9.63527 7.75263 9.23995C7.56873 8.81529 7.20465 8.5728 6.7316 8.56149C6.11714 8.54681 5.50219 8.55751 4.88748 8.55825C4.77714 8.55825 4.65835 8.57243 4.59572 8.45566C4.53073 8.33442 4.56043 8.21218 4.63089 8.10188C4.67016 8.0403 4.71627 7.98336 4.76832 7.93214C6.12008 6.614 7.47243 5.29624 8.82535 3.97885C9.1939 3.61909 9.6098 3.42523 10.1149 3.64409C10.5911 3.85039 10.9242 4.18378 10.9641 4.74361C11.0193 5.51933 10.9858 6.30282 11 7.07866L10.9907 7.59875L10.9942 7.59912Z" fill="white" fill-opacity="0.5"/>
<path d="M6.47158 2.27532C6.48177 2.96262 6.47916 3.64048 6.47916 4.30263C6.45431 4.50532 6.3759 4.67768 6.23064 4.8264C5.36299 5.71784 4.49732 6.6114 3.63364 7.50707C3.52715 7.61725 3.42153 7.73016 3.33033 7.85277C3.12033 8.1353 2.98439 8.4514 3.15637 8.79089C3.35269 9.17961 3.67937 9.42508 4.13005 9.43429C4.72985 9.44672 5.33014 9.43665 5.93019 9.43777C6.2253 9.43839 6.33229 9.62566 6.17932 9.88382C6.128 9.97087 6.0563 10.0473 5.98448 10.1193C4.6922 11.4152 3.39482 12.7059 2.10675 14.0065C1.7392 14.3774 1.33237 14.5729 0.826891 14.3463C0.329112 14.1232 0.0192137 13.7394 0.0157344 13.1718C0.00517245 11.6119 0.00479992 10.0521 0.000450873 8.49207C-0.000667453 8.12634 -0.00278349 7.76112 0.0371035 7.3959C0.139741 6.45778 0.590678 5.68381 1.22415 5.02736C2.7995 3.39461 4.40206 1.78797 5.99493 0.172134C6.0793 0.0864552 6.16702 -0.0446125 6.30246 0.0150768C6.44101 0.0760095 6.47058 0.232817 6.47158 0.37346C6.4763 0.995596 6.47158 1.65318 6.47158 2.27532Z" fill="white" fill-opacity="0.5"/>
</svg>
