<svg width="20" height="20" viewBox="0 0 20 20" fill="none" xmlns="http://www.w3.org/2000/svg">
    <path d="M10 0C8.83875 0 7.7275 0.20875 6.69 0.575C6.68375 0.57625 6.67875 0.57875 6.67375 0.58125C4.79625 1.24625 3.17875 2.45375 2.005 4.01875C2.00375 4.02125 2.00125 4.02375 1.99875 4.0275C0.75 5.69625 0 7.76 0 10C0 15.5138 4.48625 20 10 20C15.5138 20 20 15.5138 20 10C20 4.48625 15.5138 0 10 0ZM17.7762 6.00625C18.245 6.915 18.56 7.915 18.685 8.97375L17.43 7.60375L17.7762 6.00625ZM16.8175 4.52875L16.2038 7.3575L14.2425 8.3175L10.635 5.68875V3.25L13.2062 1.8675C14.6312 2.43 15.8725 3.3525 16.8175 4.52875ZM13.4338 9.275L12.0588 13.125H7.9425L6.5875 9.27625L10.0112 6.78L13.4338 9.275ZM10 1.25C10.5013 1.25 10.9887 1.30125 11.4675 1.3825L10.0125 2.165L8.5575 1.37875C9.0275 1.30125 9.5075 1.25 10 1.25ZM6.815 1.85875L9.38625 3.24625V5.68875L5.78 8.3175L3.80875 7.355L3.19625 4.51C4.14375 3.3375 5.38875 2.41875 6.815 1.85875ZM2.235 5.98375L2.58375 7.6025L1.315 8.98125C1.43875 7.91125 1.75875 6.90125 2.235 5.98375ZM2.78625 14.9425C1.97 13.755 1.43875 12.3588 1.2925 10.85L3.40875 8.55125L5.33875 9.495L6.7925 13.6238L5.56625 15.0962L2.78625 14.9425ZM3.89375 16.2563L5.37375 16.3375L5.80375 17.675C5.1025 17.29 4.4625 16.81 3.89375 16.2563ZM12.2288 18.4513C11.5162 18.64 10.7712 18.75 10 18.75C9.0675 18.75 8.17 18.6 7.32625 18.3288L6.54 15.88L7.7925 14.375H12.21L13.4412 15.8337L12.2288 18.4513ZM13.8975 17.8225L14.6075 16.2887L16.4125 15.9325C15.6975 16.705 14.8475 17.3475 13.8975 17.8225ZM14.4175 15.0525L13.2088 13.6213L14.6812 9.495L16.6025 8.55375L18.7062 10.85C18.5812 12.1513 18.1625 13.3663 17.5275 14.4387L14.4175 15.0525Z"/>
</svg>
