<svg width="16" height="15" viewBox="0 0 16 15" fill="none" xmlns="http://www.w3.org/2000/svg">
<path d="M15.354 6.8025C15.3351 6.61878 15.247 6.44856 15.1069 6.32512C14.9668 6.20168 14.7847 6.13389 14.5963 6.135H8.81827C8.39735 6.135 8.05296 6.4725 8.05296 6.885V8.1675C8.05296 8.58 8.39735 8.9175 8.81827 8.9175H12.2698C12.1856 9.6075 11.7264 10.65 10.7086 11.3475C10.0581 11.79 9.19327 12.0975 8.05296 12.0975C7.99939 12.0975 7.95347 12.0975 7.8999 12.09C5.94837 12.03 4.29531 10.7475 3.69837 8.985C3.53284 8.50663 3.44754 8.00512 3.44582 7.5C3.44582 6.9825 3.53766 6.48 3.69072 6.015C3.73664 5.88 3.79021 5.745 3.85143 5.61C4.55552 4.0575 6.09378 2.9625 7.8999 2.91C7.94582 2.9025 7.99939 2.9025 8.05296 2.9025C9.14735 2.9025 9.96623 3.255 10.5402 3.645C10.8387 3.8475 11.2366 3.8025 11.4968 3.555L12.5606 2.535C12.8974 2.2125 12.8667 1.665 12.4841 1.395C11.2673 0.5175 9.78256 0 8.05296 0C7.99939 0 7.95347 -6.98492e-09 7.8999 0.00749999C6.50808 0.0316609 5.14958 0.428878 3.9718 1.15606C2.79401 1.88324 1.8419 2.91261 1.21878 4.1325C0.698372 5.1525 0.399902 6.2925 0.399902 7.5C0.399902 8.7075 0.698372 9.8475 1.21878 10.8675H1.22643C1.84869 12.0865 2.79953 13.1153 3.97591 13.8424C5.15229 14.5696 6.50931 14.9673 7.8999 14.9925C7.95347 15 7.99939 15 8.05296 15C10.1193 15 11.8565 14.3325 13.1193 13.185C14.5657 11.8725 15.3999 9.9525 15.3999 7.665C15.3999 7.3425 15.3846 7.065 15.354 6.8025Z" fill="white" fill-opacity="0.5"/>
</svg>
