<svg width="36" height="36" viewBox="0 0 36 36" fill="none" xmlns="http://www.w3.org/2000/svg">
<path d="M31.4998 9.32175C30.5076 9.76125 29.4403 10.0545 28.3146 10.1932C29.4591 9.51375 30.3396 8.43 30.7528 7.14975C29.6818 7.7775 28.4953 8.23875 27.2331 8.48175C26.2251 7.413 24.7873 6.75 23.1943 6.75C20.1343 6.75 17.6541 9.2085 17.6541 12.24C17.6541 12.669 17.7043 13.0868 17.7988 13.4925C13.1953 13.2615 9.11231 11.073 6.38081 7.752C5.90081 8.5635 5.63081 9.51375 5.63081 10.5165C5.63081 12.4223 6.60656 14.1 8.09456 15.0885C7.18631 15.0608 6.33131 14.808 5.58281 14.403C5.58281 14.4195 5.58281 14.4443 5.58281 14.4675C5.58281 17.1308 7.49306 19.3485 10.0251 19.8533C9.56231 19.98 9.07331 20.0505 8.56931 20.0505C8.21156 20.0505 7.86281 20.01 7.52531 19.9493C8.23031 22.1258 10.2756 23.7165 12.6988 23.7638C10.8028 25.2337 8.41481 26.1143 5.81831 26.1143C5.36981 26.1143 4.93106 26.0888 4.49756 26.0363C6.95081 27.5895 9.86381 28.5 12.9906 28.5C23.1793 28.5 28.7533 20.133 28.7533 12.8745C28.7533 12.6368 28.7458 12.3998 28.7346 12.1658C29.8221 11.3978 30.7596 10.4287 31.4998 9.32175Z" fill="#03A9F4"/>
</svg>
