<svg width="36" height="36" viewBox="0 0 36 36" fill="none" xmlns="http://www.w3.org/2000/svg">
<path d="M18 3C9.7155 3 3 9.7155 3 18C3 26.2845 9.7155 33 18 33C26.2845 33 33 26.2845 33 18C33 9.7155 26.2845 3 18 3Z" fill="url(#paint0_linear_763_25981)"/>
<path d="M20.0302 21.9757H23.9122L24.5219 18.0322H20.0302V15.8767C20.0302 14.2387 20.5657 12.7859 22.0979 12.7859H24.5602V9.34494C24.1274 9.28644 23.2124 9.15894 21.4837 9.15894C17.8732 9.15894 15.7567 11.0654 15.7567 15.4094V18.0329H12.0449V21.9764H15.7559V32.8154C16.4909 32.9249 17.2357 32.9999 17.9999 32.9999C18.6907 32.9999 19.3649 32.9369 20.0302 32.8469V21.9757Z" fill="white"/>
<defs>
<linearGradient id="paint0_linear_763_25981" x1="7.49475" y1="7.49475" x2="30.4612" y2="30.4612" gradientUnits="userSpaceOnUse">
<stop stop-color="#2AA4F4"/>
<stop offset="1" stop-color="#007AD9"/>
</linearGradient>
</defs>
</svg>
