<svg width="36" height="36" viewBox="0 0 36 36" fill="none" xmlns="http://www.w3.org/2000/svg">
<path d="M30 9C30 9 26.5613 6.309 22.5 6L22.134 6.732C25.806 7.6305 27.4905 8.91825 29.25 10.5C26.2162 8.95125 23.2208 7.5 18 7.5C12.7793 7.5 9.78375 8.95125 6.75 10.5C8.5095 8.91825 10.5135 7.48875 13.866 6.732L13.5 6C9.23925 6.40275 6 9 6 9C6 9 2.15925 14.5688 1.5 25.5C5.3715 29.9648 11.25 30 11.25 30L12.4792 28.3612C10.3927 27.636 8.03625 26.3407 6 24C8.4285 25.8375 12.0938 27.75 18 27.75C23.9062 27.75 27.5715 25.8375 30 24C27.9638 26.3407 25.6073 27.636 23.5208 28.3612L24.75 30C24.75 30 30.6285 29.9648 34.5 25.5C33.8408 14.5688 30 9 30 9ZM13.125 22.5C11.6753 22.5 10.5 21.1567 10.5 19.5C10.5 17.8433 11.6753 16.5 13.125 16.5C14.5747 16.5 15.75 17.8433 15.75 19.5C15.75 21.1567 14.5747 22.5 13.125 22.5ZM22.875 22.5C21.4252 22.5 20.25 21.1567 20.25 19.5C20.25 17.8433 21.4252 16.5 22.875 16.5C24.3248 16.5 25.5 17.8433 25.5 19.5C25.5 21.1567 24.3248 22.5 22.875 22.5Z" fill="#8C9EFF"/>
</svg>
