<svg width="36" height="36" viewBox="0 0 36 36" fill="none" xmlns="http://www.w3.org/2000/svg">
<path d="M25.5124 31.4924L10.5124 31.5067C7.21244 31.5097 4.51019 28.8127 4.50644 25.5127L4.49219 10.5127C4.48919 7.21268 7.18619 4.51043 10.4862 4.50668L25.4862 4.49243C28.7862 4.48943 31.4884 7.18643 31.4922 10.4864L31.5064 25.4864C31.5102 28.7872 28.8124 31.4894 25.5124 31.4924Z" fill="url(#paint0_radial_763_25972)"/>
<path d="M25.5124 31.4924L10.5124 31.5067C7.21244 31.5097 4.51019 28.8127 4.50644 25.5127L4.49219 10.5127C4.48919 7.21268 7.18619 4.51043 10.4862 4.50668L25.4862 4.49243C28.7862 4.48943 31.4884 7.18643 31.4922 10.4864L31.5064 25.4864C31.5102 28.7872 28.8124 31.4894 25.5124 31.4924Z" fill="url(#paint1_radial_763_25972)"/>
<path d="M18 23.25C15.1058 23.25 12.75 20.895 12.75 18C12.75 15.105 15.1058 12.75 18 12.75C20.8942 12.75 23.25 15.105 23.25 18C23.25 20.895 20.8942 23.25 18 23.25ZM18 14.25C15.9323 14.25 14.25 15.9323 14.25 18C14.25 20.0677 15.9323 21.75 18 21.75C20.0677 21.75 21.75 20.0677 21.75 18C21.75 15.9323 20.0677 14.25 18 14.25Z" fill="white"/>
<path d="M23.625 13.5C24.2463 13.5 24.75 12.9963 24.75 12.375C24.75 11.7537 24.2463 11.25 23.625 11.25C23.0037 11.25 22.5 11.7537 22.5 12.375C22.5 12.9963 23.0037 13.5 23.625 13.5Z" fill="white"/>
<path d="M22.5 27.75H13.5C10.6058 27.75 8.25 25.395 8.25 22.5V13.5C8.25 10.605 10.6058 8.25 13.5 8.25H22.5C25.3943 8.25 27.75 10.605 27.75 13.5V22.5C27.75 25.395 25.3943 27.75 22.5 27.75ZM13.5 9.75C11.4323 9.75 9.75 11.4323 9.75 13.5V22.5C9.75 24.5677 11.4323 26.25 13.5 26.25H22.5C24.5677 26.25 26.25 24.5677 26.25 22.5V13.5C26.25 11.4323 24.5677 9.75 22.5 9.75H13.5Z" fill="white"/>
<defs>
<radialGradient id="paint0_radial_763_25972" cx="0" cy="0" r="1" gradientUnits="userSpaceOnUse" gradientTransform="translate(14.5347 31.5262) scale(33.6742)">
<stop stop-color="#FFDD55"/>
<stop offset="0.328" stop-color="#FF543F"/>
<stop offset="0.348" stop-color="#FC5245"/>
<stop offset="0.504" stop-color="#E64771"/>
<stop offset="0.643" stop-color="#D53E91"/>
<stop offset="0.761" stop-color="#CC39A4"/>
<stop offset="0.841" stop-color="#C837AB"/>
</radialGradient>
<radialGradient id="paint1_radial_763_25972" cx="0" cy="0" r="1" gradientUnits="userSpaceOnUse" gradientTransform="translate(8.83919 4.15516) scale(22.3598 14.8983)">
<stop stop-color="#4168C9"/>
<stop offset="0.999" stop-color="#4168C9" stop-opacity="0"/>
</radialGradient>
</defs>
</svg>
