<svg width="36" height="36" viewBox="0 0 36 36" fill="none" xmlns="http://www.w3.org/2000/svg">
<path d="M32.4 25.425C32.1 27 30.825 28.2 29.25 28.425C26.775 28.8 22.65 29.25 18 29.25C13.425 29.25 9.3 28.8 6.75 28.425C5.175 28.2 3.9 27 3.6 25.425C3.3 23.7 3 21.15 3 18C3 14.85 3.3 12.3 3.6 10.575C3.9 9 5.175 7.8 6.75 7.575C9.225 7.2 13.35 6.75 18 6.75C22.65 6.75 26.7 7.2 29.25 7.575C30.825 7.8 32.1 9 32.4 10.575C32.7 12.3 33.075 14.85 33.075 18C33 21.15 32.7 23.7 32.4 25.425Z" fill="#FF3D00"/>
<path d="M15 23.25V12.75L24 18L15 23.25Z" fill="white"/>
</svg>
