<svg width="24" height="24" viewBox="0 0 24 24" fill="none" xmlns="http://www.w3.org/2000/svg">
<path fill-rule="evenodd" clip-rule="evenodd" d="M22.75 12C22.75 17.9142 17.9142 22.75 12 22.75C6.08579 22.75 1.25 17.9142 1.25 12C1.25 6.08578 6.08579 1.25 12 1.25C17.9142 1.25 22.75 6.08579 22.75 12ZM12 21.25C17.0858 21.25 21.25 17.0858 21.25 12C21.25 6.91421 17.0858 2.75 12 2.75C6.91421 2.75 2.75 6.91421 2.75 12C2.75 17.0858 6.91421 21.25 12 21.25Z" fill="white"/>
<path fill-rule="evenodd" clip-rule="evenodd" d="M12 16.75C11.5858 16.75 11.25 16.4142 11.25 16L11.25 11C11.25 10.5858 11.5858 10.25 12 10.25C12.4142 10.25 12.75 10.5858 12.75 11L12.75 16C12.75 16.4142 12.4142 16.75 12 16.75Z" fill="white"/>
<path fill-rule="evenodd" clip-rule="evenodd" d="M13.0054 8C13.0054 8.55228 12.5577 9 12.0054 9L11.9964 9C11.4441 9 10.9964 8.55228 10.9964 8C10.9964 7.44772 11.4441 7 11.9964 7L12.0054 7C12.5577 7 13.0054 7.44772 13.0054 8Z" fill="white"/>
</svg>
