<svg width="14" height="15" viewBox="0 0 14 15" fill="none" xmlns="http://www.w3.org/2000/svg">
    <path d="M8.07717 10.1647C8.05107 10.1388 8.01582 10.1243 7.97908 10.1243C7.94235 10.1243 7.9071 10.1388 7.88099 10.1647L5.8637 12.1821C4.9297 13.1162 3.35336 13.2152 2.32215 12.1821C1.28919 11.1491 1.38815 9.57437 2.32215 8.6403L4.33944 6.62284C4.39326 6.56902 4.39326 6.48047 4.33944 6.42665L3.64849 5.73565C3.62239 5.7098 3.58714 5.6953 3.55041 5.6953C3.51367 5.6953 3.47842 5.7098 3.45232 5.73565L1.43502 7.75311C-0.0336795 9.22193 -0.0336795 11.5988 1.43502 13.0659C2.90373 14.533 5.28038 14.5347 6.74735 13.0659L8.76465 11.0484C8.81846 10.9946 8.81846 10.906 8.76465 10.8522L8.07717 10.1647ZM12.5666 1.93511C11.0979 0.466291 8.72124 0.466291 7.25428 1.93511L5.23525 3.95257C5.2094 3.97868 5.1949 4.01393 5.1949 4.05067C5.1949 4.0874 5.2094 4.12266 5.23525 4.14876L5.92446 4.83803C5.97828 4.89185 6.06682 4.89185 6.12063 4.83803L8.13793 2.82057C9.07193 1.8865 10.6483 1.78754 11.6795 2.82057C12.7124 3.85361 12.6135 5.42834 11.6795 6.36241L9.66219 8.37987C9.63634 8.40598 9.62184 8.44123 9.62184 8.47797C9.62184 8.5147 9.63634 8.54996 9.66219 8.57606L10.3531 9.26707C10.407 9.32089 10.4955 9.32089 10.5493 9.26707L12.5666 7.24961C14.0336 5.78079 14.0336 3.40393 12.5666 1.93511ZM8.70388 5.07589C8.67778 5.05004 8.64253 5.03554 8.6058 5.03554C8.56906 5.03554 8.53381 5.05004 8.50771 5.07589L4.57555 9.00664C4.5497 9.03274 4.5352 9.068 4.5352 9.10473C4.5352 9.14147 4.5497 9.17672 4.57555 9.20283L5.26302 9.89036C5.31684 9.94418 5.40538 9.94418 5.4592 9.89036L9.38963 5.95962C9.44344 5.90579 9.44344 5.81725 9.38963 5.76342L8.70388 5.07589Z" fill="white"/>
</svg>
