<svg width="21" height="12" viewBox="0 0 21 12" fill="none" xmlns="http://www.w3.org/2000/svg">
<path d="M4.45578 10.335C4.36078 10.335 4.26578 10.3 4.19078 10.225C4.04578 10.08 4.04578 9.84001 4.19078 9.69501L7.45078 6.43501C7.69078 6.19501 7.69078 5.80501 7.45078 5.56501L4.19078 2.30501C4.04578 2.16001 4.04578 1.92001 4.19078 1.77501C4.33578 1.63001 4.57578 1.63001 4.72078 1.77501L7.98078 5.03501C8.23578 5.29001 8.38078 5.63501 8.38078 6.00001C8.38078 6.36501 8.24078 6.71001 7.98078 6.96501L4.72078 10.225C4.64578 10.295 4.55078 10.335 4.45578 10.335Z" fill="white" fill-opacity="0.5"/>
<path d="M16.5006 10.335C16.4056 10.335 16.3106 10.3 16.2356 10.225L12.9756 6.96501C12.4456 6.43501 12.4456 5.56501 12.9756 5.03501L16.2356 1.77501C16.3806 1.63001 16.6206 1.63001 16.7656 1.77501C16.9106 1.92001 16.9106 2.16001 16.7656 2.30501L13.5056 5.56501C13.2656 5.80501 13.2656 6.19501 13.5056 6.43501L16.7656 9.69501C16.9106 9.84001 16.9106 10.08 16.7656 10.225C16.6906 10.295 16.5956 10.335 16.5006 10.335Z" fill="white" fill-opacity="0.5"/>
</svg>
