<svg width="20" height="20" viewBox="0 0 20 20" fill="none" xmlns="http://www.w3.org/2000/svg">
<path d="M6.85161 5.84529V14.1666H6.04402V8.46741L4.54218 14.1666H3.98253L2.47361 8.46741V14.1666H1.66602V5.84529H2.53737L4.2659 12.3707L5.98734 5.84529H6.85161Z" fill="white" fill-opacity="0.5"/>
<path d="M13.0987 5.84529V14.1666H12.2911V8.46741L10.7892 14.1666H10.2296L8.72066 8.46741V14.1666H7.91307V5.84529H8.78442L10.513 12.3707L12.2344 5.84529H13.0987Z" fill="white" fill-opacity="0.5"/>
<path d="M17.1284 12.4665H15.0669L14.7127 14.1666H13.8697L15.6336 5.83331H16.5687L18.3327 14.1666H17.4826L17.1284 12.4665ZM16.9017 11.353L16.1012 7.48561L15.2936 11.353H16.9017Z" fill="white" fill-opacity="0.5"/>
<rect x="1.66602" y="2.5" width="16.6667" height="0.833333" fill="white" fill-opacity="0.5"/>
<rect x="1.66602" y="16.6667" width="16.6667" height="0.833334" fill="white" fill-opacity="0.5"/>
</svg>
