<svg width="15" height="17" viewBox="0 0 15 17" fill="none" xmlns="http://www.w3.org/2000/svg">
<path d="M2.476 1.79353C2.53611 1.6397 2.56694 1.47558 2.56682 1.30996C2.56682 1.13792 2.53362 0.967559 2.46912 0.808614C2.40461 0.649669 2.31006 0.505248 2.19088 0.383605C2.07169 0.261961 1.93019 0.165476 1.77447 0.0996571C1.61874 0.0338381 1.45184 -2.80348e-05 1.2833 1.7413e-08C0.942945 1.7413e-08 0.616534 0.138013 0.375867 0.383678C0.1352 0.629343 0 0.962538 0 1.30996C0 1.65738 0.1352 1.99058 0.375867 2.23624C0.616534 2.48191 0.942945 2.61992 1.2833 2.61992C1.47963 2.62026 1.6734 2.57435 1.84952 2.48578L15 15.3L2.476 1.79353ZM1.28016 2.1026C1.17493 2.10263 1.07073 2.08149 0.973496 2.04041C0.876266 1.99932 0.787912 1.93908 0.713491 1.86313C0.639071 1.78719 0.580037 1.69702 0.53976 1.59778C0.499482 1.49854 0.478753 1.39218 0.478753 1.28476C0.478753 1.17733 0.499485 1.07095 0.53976 0.971702C0.580034 0.872451 0.639063 0.782266 0.713481 0.706303C0.787899 0.630339 0.876244 0.570079 0.973476 0.528968C1.07071 0.487857 1.17492 0.4667 1.28016 0.4667C1.49271 0.4667 1.69656 0.552887 1.84686 0.706303C1.99715 0.859718 2.08158 1.0678 2.08158 1.28476C2.08158 1.39218 2.06084 1.49854 2.02057 1.59778C1.98029 1.69702 1.92126 1.78719 1.84683 1.86313C1.77241 1.93908 1.68407 1.99932 1.58684 2.04041C1.48961 2.08149 1.3854 2.10263 1.28016 2.1026Z" fill="white" fill-opacity="0.5"/>
<path d="M13.5591 1.68974C13.2188 1.68974 12.8924 1.82775 12.6517 2.07342C12.411 2.31908 12.2758 2.65228 12.2758 2.9997C12.2758 3.25225 12.3473 3.49942 12.4818 3.71144C12.6162 3.92346 12.8078 4.0913 13.0335 4.19474V9.20347L4.51488 0.54574H2.82228L14.0751 11.8614V4.19923C14.3033 4.09691 14.4974 3.929 14.6336 3.71599C14.7699 3.50298 14.8424 3.2541 14.8424 2.9997C14.8424 2.82767 14.8092 2.65733 14.7448 2.4984C14.6803 2.33947 14.5857 2.19506 14.4666 2.07342C14.3474 1.95178 14.2059 1.85529 14.0502 1.78945C13.8945 1.72362 13.7277 1.68974 13.5591 1.68974ZM13.5535 3.83036C13.4482 3.83036 13.3441 3.8092 13.2468 3.76808C13.1496 3.72697 13.0613 3.6667 12.9869 3.59074C12.9125 3.51477 12.8535 3.42459 12.8132 3.32534C12.773 3.22609 12.7523 3.11972 12.7523 3.0123C12.7523 2.79539 12.8367 2.58737 12.9869 2.434C13.1372 2.28062 13.341 2.19445 13.5535 2.19445C13.6587 2.19443 13.7629 2.21556 13.8602 2.25665C13.9574 2.29774 14.0457 2.35797 14.1202 2.43392C14.1946 2.50987 14.2536 2.60003 14.2939 2.69927C14.3342 2.79851 14.3549 2.90488 14.3549 3.0123C14.3549 3.22926 14.2705 3.43734 14.1202 3.59075C13.9699 3.74417 13.766 3.83036 13.5535 3.83036Z" fill="white" fill-opacity="0.5"/>
<path d="M13.1266 17H14.6518L3.47053 5.82381V13.3209C3.25019 13.4268 3.06391 13.5944 2.93345 13.8043C2.80298 14.0143 2.73373 14.2577 2.73377 14.5063C2.73377 14.8537 2.86897 15.1869 3.10964 15.4326C3.35031 15.6783 3.67673 15.8163 4.01708 15.8163C4.35744 15.8163 4.68385 15.6783 4.92451 15.4326C5.16518 15.1869 5.30038 14.8537 5.30038 14.5063C5.30036 14.2414 5.22168 13.9827 5.07473 13.7644C4.92777 13.5461 4.71945 13.3783 4.47721 13.2833V8.29207L13.1266 17ZM4.79464 14.501C4.79466 14.6084 4.77396 14.7148 4.73371 14.814C4.69346 14.9133 4.63444 15.0035 4.56004 15.0794C4.48564 15.1554 4.39731 15.2156 4.30009 15.2568C4.20287 15.2979 4.09866 15.319 3.99343 15.319C3.78088 15.319 3.57704 15.2328 3.42675 15.0794C3.27645 14.926 3.19202 14.7179 3.19202 14.501C3.19202 14.3936 3.21275 14.2872 3.25303 14.188C3.2933 14.0887 3.35234 13.9985 3.42676 13.9226C3.50118 13.8467 3.58953 13.7864 3.68676 13.7453C3.78399 13.7042 3.8882 13.6831 3.99343 13.6831C4.09866 13.6831 4.20287 13.7043 4.30009 13.7454C4.39731 13.7865 4.48564 13.8468 4.56004 13.9227C4.63444 13.9987 4.69346 14.0889 4.73371 14.1881C4.77396 14.2874 4.79466 14.3936 4.79464 14.501Z" fill="white" fill-opacity="0.5"/>
</svg>
