<svg width="15" height="15" viewBox="0 0 15 15" fill="none" xmlns="http://www.w3.org/2000/svg">
<path d="M10.9783 9.29333C11.8917 9.44667 12.8983 9.28667 13.605 8.81333C14.545 8.18667 14.545 7.16 13.605 6.53333C12.8917 6.06 11.8717 5.9 10.9583 6.06M4.33167 9.29333C3.41833 9.44667 2.41167 9.28667 1.705 8.81333C0.765 8.18667 0.765 7.16 1.705 6.53333C2.41833 6.06 3.43833 5.9 4.35167 6.06M11.665 4.44C11.623 4.43333 11.5803 4.43333 11.5383 4.44C11.0934 4.42391 10.6722 4.23547 10.3637 3.91451C10.0551 3.59354 9.8835 3.1652 9.885 2.72C9.885 1.76667 10.6517 1 11.605 1C12.0612 1 12.4987 1.18121 12.8212 1.50378C13.1438 1.82634 13.325 2.26383 13.325 2.72C13.3238 3.16552 13.1503 3.5933 12.8409 3.91387C12.5316 4.23445 12.1102 4.42297 11.665 4.44V4.44ZM3.645 4.44C3.685 4.43333 3.73167 4.43333 3.77167 4.44C4.21658 4.42391 4.63781 4.23547 4.94633 3.91451C5.25485 3.59354 5.4265 3.1652 5.425 2.72C5.425 1.76667 4.65833 1 3.705 1C3.24883 1 2.81134 1.18121 2.48878 1.50378C2.16621 1.82634 1.985 2.26383 1.985 2.72C1.99167 3.65333 2.725 4.40667 3.645 4.44ZM7.665 9.42C7.62304 9.41333 7.58029 9.41333 7.53833 9.42C7.09342 9.40391 6.6722 9.21547 6.36367 8.89451C6.05515 8.57354 5.8835 8.1452 5.885 7.7C5.885 6.74667 6.65167 5.98 7.605 5.98C8.06117 5.98 8.49866 6.16121 8.82122 6.48378C9.14379 6.80634 9.325 7.24383 9.325 7.7C9.31833 8.63333 8.585 9.39333 7.665 9.42ZM5.725 11.52C4.785 12.1467 4.785 13.1733 5.725 13.8C6.79167 14.5133 8.53833 14.5133 9.605 13.8C10.545 13.1733 10.545 12.1467 9.605 11.52C8.545 10.8133 6.79167 10.8133 5.725 11.52Z" stroke="white" stroke-linecap="round" stroke-linejoin="round"/>
</svg>
