<svg width="16" height="16" viewBox="0 0 16 16" fill="none" xmlns="http://www.w3.org/2000/svg">
    <path fill-rule="evenodd" clip-rule="evenodd" d="M7.9987 1.83325C4.56948 1.83325 1.83203 4.59476 1.83203 7.99992C1.83203 8.27606 1.60817 8.49992 1.33203 8.49992C1.05589 8.49992 0.832031 8.27606 0.832031 7.99992C0.832031 4.04508 4.01459 0.833252 7.9987 0.833252C10.3705 0.833252 12.1466 1.82392 13.3198 2.80264C13.6474 3.07593 13.9292 3.34915 14.1654 3.60126V1.70659C14.1654 1.43044 14.3892 1.20659 14.6654 1.20659C14.9415 1.20659 15.1654 1.43044 15.1654 1.70659V5.03992C15.1654 5.31606 14.9415 5.53992 14.6654 5.53992H11.7054C11.4292 5.53992 11.2054 5.31606 11.2054 5.03992C11.2054 4.76378 11.4292 4.53992 11.7054 4.53992H13.6649C13.416 4.25151 13.0873 3.91096 12.6792 3.57053C11.6308 2.69592 10.0736 1.83325 7.9987 1.83325ZM14.6654 7.49992C14.9415 7.49992 15.1654 7.72378 15.1654 7.99992C15.1654 11.9561 11.9548 15.1666 7.9987 15.1666C5.98506 15.1666 4.38836 14.1531 3.31945 13.1836C3.03572 12.9263 2.786 12.6692 2.57203 12.4302V14.2933C2.57203 14.5694 2.34817 14.7933 2.07203 14.7933C1.79589 14.7933 1.57203 14.5694 1.57203 14.2933V10.9599C1.57203 10.6838 1.79589 10.4599 2.07203 10.4599H5.08536C5.36151 10.4599 5.58536 10.6838 5.58536 10.9599C5.58536 11.2361 5.36151 11.4599 5.08536 11.4599H3.05676C3.29729 11.7523 3.61098 12.098 3.99128 12.4429C4.96571 13.3267 6.33234 14.1666 7.9987 14.1666C11.4026 14.1666 14.1654 11.4038 14.1654 7.99992C14.1654 7.72378 14.3892 7.49992 14.6654 7.49992Z" fill="white"/>
</svg>
