<svg width="32" height="32" viewBox="0 0 32 32" fill="none" xmlns="http://www.w3.org/2000/svg">
<path d="M26.202 26.7477L26.2019 26.7473L24.537 19.5392L30.0902 14.6842C30.0903 14.6841 30.0904 14.684 30.0905 14.6839C31.8361 13.1588 30.9231 10.2358 28.5827 10.0456C28.5817 10.0456 28.5807 10.0455 28.5798 10.0454L21.2853 9.42062L18.4285 2.61875C18.4283 2.61823 18.4281 2.61771 18.4279 2.6172C17.5294 0.461084 14.4711 0.460935 13.5723 2.61675C13.5721 2.61742 13.5718 2.61808 13.5715 2.61875L10.7153 9.40407L3.42023 10.0289C3.41925 10.029 3.41827 10.0291 3.41729 10.0291C1.07691 10.2194 0.163952 13.1423 1.90946 14.6674C1.90958 14.6675 1.9097 14.6676 1.90981 14.6677L7.46297 19.5227L5.79807 26.7308L5.79797 26.7312C5.27849 28.985 7.70615 30.8277 9.73029 29.5928C9.73066 29.5925 9.73103 29.5923 9.7314 29.5921L15.999 25.7825L22.2686 29.6086C22.2687 29.6087 22.2688 29.6087 22.2689 29.6088C24.2932 30.8447 26.7216 29.0019 26.202 26.7477Z" fill="url(#paint0_linear_781_39511)" stroke="white" stroke-width="2"/>
<defs>
<linearGradient id="paint0_linear_781_39511" x1="2" y1="29" x2="31.4218" y2="27.3498" gradientUnits="userSpaceOnUse">
<stop stop-color="#225FED"/>
<stop offset="1" stop-color="#712EFF"/>
</linearGradient>
</defs>
</svg>
