<svg width="20" height="21" viewBox="0 0 20 21" fill="none" xmlns="http://www.w3.org/2000/svg">
<path d="M9.58317 18.6251C4.87484 18.6251 1.0415 14.7917 1.0415 10.0834C1.0415 5.37508 4.87484 1.54175 9.58317 1.54175C14.2915 1.54175 18.1248 5.37508 18.1248 10.0834C18.1248 14.7917 14.2915 18.6251 9.58317 18.6251ZM9.58317 2.79175C5.55817 2.79175 2.2915 6.06675 2.2915 10.0834C2.2915 14.1001 5.55817 17.3751 9.58317 17.3751C13.6082 17.3751 16.8748 14.1001 16.8748 10.0834C16.8748 6.06675 13.6082 2.79175 9.58317 2.79175Z" fill="white" fill-opacity="0.8"/>
<path d="M18.3335 19.4583C18.1752 19.4583 18.0169 19.4 17.8919 19.275L16.2252 17.6083C15.9835 17.3666 15.9835 16.9666 16.2252 16.725C16.4669 16.4833 16.8669 16.4833 17.1085 16.725L18.7752 18.3916C19.0169 18.6333 19.0169 19.0333 18.7752 19.275C18.6502 19.4 18.4919 19.4583 18.3335 19.4583Z" fill="white" fill-opacity="0.8"/>
</svg>
