<svg width="14" height="11" viewBox="0 0 14 11" fill="none" xmlns="http://www.w3.org/2000/svg">
<path d="M12.7071 3.67645L9.93411 1.07366C9.70531 0.858896 9.47323 0.75 9.24436 0.75C8.93012 0.75 8.56314 0.974349 8.56314 1.60664V2.49276C6.5485 2.57518 4.66709 3.3507 3.23212 4.69754C1.71226 6.12401 0.875167 8.02068 0.875 10.0381C0.874976 10.183 0.973766 10.3118 1.12024 10.3576C1.15761 10.3693 1.19592 10.375 1.23384 10.375C1.34454 10.375 1.45171 10.3268 1.52083 10.2405C3.21518 8.12351 5.76617 6.87245 8.56314 6.77366V7.64611C8.56314 8.27838 8.93009 8.50275 9.24433 8.50277H9.24436C9.47323 8.50277 9.70534 8.39388 9.93411 8.17911L12.7071 5.5763C12.9766 5.32339 13.125 4.98603 13.125 4.6264C13.125 4.26674 12.9766 3.92939 12.7071 3.67645ZM12.1996 5.09991L9.42658 7.70275C9.37339 7.75267 9.32934 7.7842 9.29685 7.80336C9.28831 7.76826 9.28092 7.71672 9.28092 7.64613V6.43049C9.28092 6.24445 9.12023 6.09363 8.92203 6.09363C7.32745 6.09363 5.80373 6.43655 4.39329 7.11284C3.38075 7.59834 2.45515 8.2519 1.67132 9.03023C2.19276 5.71334 5.24574 3.15916 8.92203 3.15916C9.12023 3.15916 9.28092 3.00834 9.28092 2.8223V1.60664C9.28092 1.53605 9.28831 1.48451 9.29683 1.44944C9.32932 1.46859 9.37339 1.50012 9.42658 1.55005L12.1996 4.15286C12.3335 4.27855 12.4072 4.44671 12.4072 4.6264C12.4072 4.80606 12.3335 4.97422 12.1996 5.09991Z" fill="white"/>
</svg>
