<svg width="16" height="16" viewBox="0 0 16 16" fill="none" xmlns="http://www.w3.org/2000/svg">
    <path fill-rule="evenodd" clip-rule="evenodd" d="M10.6822 15.4979C11.315 15.8726 11.8212 16 12.2157 16C12.64 16 12.9378 15.8501 13.1239 15.7152C13.4663 15.4604 13.9948 14.8084 13.6524 13.3096L13.1239 11.0089C13.0718 10.7616 13.1834 10.3569 13.3621 10.177L15.2082 8.31101C16.1238 7.38173 16.0494 6.58735 15.9303 6.19766C15.8112 5.80796 15.4092 5.1185 14.1214 4.90117L11.7467 4.50398C11.5234 4.46651 11.2033 4.2267 11.0991 4.02436L9.78896 1.38642C9.19344 0.179859 8.41182 0 8.0024 0C7.59298 0 6.81136 0.179859 6.21584 1.38642L4.89825 4.03185C4.80148 4.23419 4.48138 4.474 4.25806 4.51148L1.88342 4.90866C0.603053 5.12599 0.201076 5.81546 0.0745278 6.20515C-0.0520204 6.59485 -0.126461 7.38923 0.796597 8.3185L2.64271 10.177C2.82137 10.3569 2.94047 10.7691 2.88092 11.0089L2.3524 13.3096C2.00253 14.8084 2.5385 15.4604 2.88092 15.7152C3.23079 15.97 4.00497 16.2848 5.32256 15.4979L7.55576 14.1714C7.77908 14.0365 8.22572 14.0365 8.45649 14.1714L10.6822 15.4979Z" fill="#F7C927"/>
</svg>
