<svg width="21" height="20" viewBox="0 0 21 20" fill="none" xmlns="http://www.w3.org/2000/svg">
<path d="M19.5428 3.55658C19.5227 3.47772 19.4864 3.40511 19.4351 3.33751C19.1572 2.73911 18.8054 2.17075 18.3184 1.68377C17.8314 1.19679 17.2631 0.845016 16.6647 0.567099C16.5958 0.515772 16.5232 0.48072 16.4444 0.46069C14.6642 -0.277918 12.561 -0.121433 10.732 0.880069C10.6281 0.906358 10.5292 0.951426 10.4479 1.0328C10.4441 1.0353 10.4441 1.03906 10.4403 1.04281C9.94085 1.34702 9.45762 1.69254 9.02197 2.12694C8.46864 2.68027 8.038 3.31122 7.68997 3.97721C7.63614 4.04106 7.59608 4.11117 7.57104 4.18753C7.16168 5.04131 6.91256 5.95769 6.8725 6.90035L6.63589 12.48L4.4426 14.6733C3.74531 14.344 2.89403 14.4517 2.31942 15.0263L0.549261 16.7964C-0.183087 17.5288 -0.183087 18.7193 0.549261 19.4517C0.91481 19.8172 1.39678 20 1.8775 20C2.35822 20 2.8402 19.8172 3.20575 19.4517L4.9759 17.6815C5.33018 17.3272 5.52548 16.8553 5.52548 16.3533C5.52548 16.0691 5.45662 15.7974 5.33769 15.5483L7.52222 13.3638L13.1006 13.1272C14.042 13.0871 14.9584 12.838 15.8122 12.4286C15.891 12.4036 15.9649 12.3623 16.0312 12.3047C16.6947 11.9579 17.3232 11.5285 17.8753 10.9777C18.3109 10.5421 18.6564 10.0588 18.9594 9.55809C18.9619 9.55558 18.9656 9.55433 18.9694 9.55183C19.0508 9.47046 19.0946 9.37156 19.1221 9.2689C20.1236 7.43991 20.2801 5.3355 19.5428 3.55658ZM4.08957 16.7964L2.31942 18.5666C2.08281 18.802 1.67094 18.802 1.43434 18.5666C1.31541 18.4489 1.25031 18.2912 1.25031 18.1247C1.25031 17.9582 1.31541 17.8005 1.43309 17.6815L3.20324 15.9114C3.32217 15.7937 3.47866 15.7286 3.64641 15.7286C3.81291 15.7286 3.96814 15.7937 4.08582 15.9101C4.08707 15.9114 4.08707 15.9114 4.08707 15.9126C4.08832 15.9139 4.08957 15.9139 4.08957 15.9151C4.20725 16.0328 4.27109 16.188 4.27109 16.3545C4.27235 16.521 4.20725 16.6788 4.08957 16.7964ZM17.4321 2.5701C17.7388 2.87681 17.9742 3.22859 18.1757 3.59664L16.0362 5.7361L14.2661 3.96595L16.4055 1.82649C16.7736 2.02804 17.1254 2.26214 17.4321 2.5701ZM15.1512 6.62118L13.2195 8.55283L11.4494 6.78267L13.381 4.85103L15.1512 6.62118ZM14.0746 1.22559C14.4288 1.22559 14.7769 1.27065 15.1186 1.34201L13.381 3.08087L11.9551 1.65498C12.6462 1.37331 13.3672 1.22559 14.0746 1.22559ZM9.90705 3.01202C10.1875 2.7316 10.4904 2.48873 10.8034 2.27341L12.4959 3.96595L10.563 5.8976L8.94936 4.28393C9.21601 3.832 9.52147 3.3976 9.90705 3.01202ZM8.12437 6.95293C8.14566 6.45969 8.25457 5.97772 8.40229 5.50701L9.67796 6.78267L8.2433 8.21733C8.15817 7.81046 8.1056 7.39109 8.12437 6.95293ZM7.90655 12.0956L7.96789 10.6635C8.15442 10.9276 8.34721 11.1893 8.57881 11.4221C8.8104 11.6537 9.06704 11.849 9.32993 12.0356L7.90655 12.0956ZM9.46514 10.5358C9.16093 10.2328 8.92432 9.88107 8.72152 9.50926L10.5643 7.6665L12.3344 9.43791L10.4917 11.2807C10.1211 11.0766 9.76934 10.8413 9.46514 10.5358ZM13.0468 11.8766C12.6073 11.8928 12.1905 11.8403 11.7849 11.7564L13.2195 10.3217L14.4939 11.5961C14.0232 11.7464 13.5413 11.8553 13.0468 11.8766ZM16.9877 10.0939C16.6033 10.4795 16.1689 10.7849 15.717 11.0503L14.1033 9.43791L16.035 7.50626L17.7288 9.20005C17.5135 9.51302 17.2681 9.81347 16.9877 10.0939ZM18.3384 8.03831L16.9213 6.62118L18.6477 4.89484C18.858 5.91262 18.7566 7.00426 18.3384 8.03831Z" fill="white"/>
<path d="M2.01367 0C0.910672 0 0.0136719 0.897 0.0136719 2C0.0136719 3.103 0.910672 4 2.01367 4C3.11667 4 4.01367 3.103 4.01367 2C4.01367 0.897 3.11667 0 2.01367 0ZM2.01367 3C1.46167 3 1.01367 2.551 1.01367 2C1.01367 1.449 1.46167 1 2.01367 1C2.56567 1 3.01367 1.449 3.01367 2C3.01367 2.551 2.56567 3 2.01367 3Z" fill="white"/>
</svg>
