<svg width="24" height="24" viewBox="0 0 24 24" fill="none" xmlns="http://www.w3.org/2000/svg">
<path d="M20.3404 3.66025C17.842 1.16182 13.3662 1.51936 10.3967 4.48888C6.75877 8.1265 7.98611 13.5307 4.69647 16.8204C3.9851 17.5318 4.16026 17.356 4.1317 17.3846C4.13073 17.3864 2.51565 18.9987 2.51413 19.0002C1.82862 19.6857 1.82862 20.8003 2.51413 21.4858C3.19964 22.1714 4.31424 22.1714 4.99979 21.4858C7.22744 19.2582 6.41498 20.0737 6.61791 19.8708C6.61893 19.8689 7.18061 19.3076 7.18209 19.306C9.48931 16.9988 12.6055 17.0336 16.1076 15.7037C17.2261 15.279 18.2982 14.8174 19.5117 13.6039C22.4778 10.6377 22.8401 6.15994 20.3404 3.66025ZM19.5117 4.48888C19.7968 4.774 20.0305 5.09349 20.223 5.4349L18.683 6.97486L17.0258 5.31756L18.5657 3.7776C18.9071 3.9701 19.2266 4.20377 19.5117 4.48888ZM12.054 10.2893L13.7113 8.63204L15.3685 10.2893L13.7113 11.9466L12.054 10.2893ZM12.8826 12.7752L11.3444 14.3134C10.9997 14.1195 10.679 13.8862 10.3967 13.6039C10.1144 13.3216 9.88111 13.0008 9.68712 12.6562L11.2253 11.118L12.8826 12.7752ZM14.5399 7.80345L16.1972 6.14615L17.8545 7.80345L16.1972 9.46071L14.5399 7.80345ZM17.3736 3.31248L16.1972 4.48885L14.9802 3.27189C15.8018 3.11342 16.6173 3.12908 17.3736 3.31248ZM13.7085 3.65752L15.3685 5.31748L13.7113 6.97478L11.6568 4.92029C12.2934 4.37166 12.9904 3.95092 13.7085 3.65752ZM10.8361 5.75701L12.8825 7.80341L11.2253 9.46067L9.56798 7.80341C9.86736 7.07017 10.2984 6.38107 10.8361 5.75701ZM9.18591 9.07853L10.3967 10.2893L9.22154 11.4645C9.04088 10.7213 9.02607 9.91098 9.18591 9.07853ZM9.78681 16.3726C9.17927 16.3286 8.65615 16.1086 8.27506 15.7275C7.89396 15.3464 7.67389 14.8232 7.6299 14.2157C7.87693 13.477 7.50666 14.7428 8.23638 12.1764C8.2949 12.3542 8.33838 12.5386 8.41263 12.7089C8.42588 12.7549 8.44646 12.7968 8.47127 12.839C8.74498 13.4262 9.104 13.9684 9.56802 14.4326C10.0319 14.8964 10.5741 15.2553 11.1609 15.5289C11.2036 15.5539 11.2458 15.5748 11.2922 15.5882C11.4637 15.6629 11.6493 15.7068 11.8284 15.7655C9.25959 16.4959 10.5248 16.1258 9.78681 16.3726ZM12.5363 14.7789L13.7113 13.6038L14.9219 14.8145C14.0894 14.9742 13.2793 14.9594 12.5363 14.7789ZM16.1972 14.4325L14.5399 12.7752L16.1972 11.118L18.2436 13.1644C17.6195 13.7021 16.9304 14.1332 16.1972 14.4325ZM19.0803 12.3438L17.0259 10.2893L18.6831 8.63204L20.3432 10.2921C20.0496 11.0101 19.6289 11.7072 19.0803 12.3438ZM19.5117 7.80341L20.6882 6.62705C20.8715 7.38329 20.8871 8.19876 20.7287 9.02036L19.5117 7.80341Z" fill="white" fill-opacity="0.5"/>
<path d="M4.43195 2.00122C3.09212 2.00122 2.00195 3.09138 2.00195 4.43122C2.00195 5.77106 3.09215 6.86122 4.43195 6.86122C5.77179 6.86122 6.86195 5.77106 6.86195 4.43122C6.86195 3.09138 5.77179 2.00122 4.43195 2.00122Z" fill="white" fill-opacity="0.5"/>
</svg>
