<svg width="16" height="17" viewBox="0 0 16 17" fill="none" xmlns="http://www.w3.org/2000/svg">
<path fill-rule="evenodd" clip-rule="evenodd" d="M1.6471 3.4798C2.3061 2.8208 3.33756 2.66669 4.66732 2.66669H11.334C12.6637 2.66669 13.6952 2.8208 14.3542 3.4798C15.0132 4.1388 15.1673 5.17026 15.1673 6.50002V7.16669C15.1673 7.44283 14.9435 7.66669 14.6673 7.66669C14.3912 7.66669 14.1673 7.44283 14.1673 7.16669V6.50002C14.1673 5.16311 13.9881 4.5279 13.6471 4.18691C13.3061 3.84591 12.6709 3.66669 11.334 3.66669H4.66732C3.33041 3.66669 2.6952 3.84591 2.3542 4.18691C2.02257 4.51854 1.84395 5.12846 1.83439 6.39149C2.78948 6.6175 3.50065 7.4761 3.50065 8.50002C3.50065 9.52394 2.78948 10.3825 1.83439 10.6086C1.84395 11.8716 2.02257 12.4815 2.3542 12.8131C2.6952 13.1541 3.33041 13.3334 4.66732 13.3334H11.334C12.6709 13.3334 13.3061 13.1541 13.6471 12.8131C13.9483 12.512 14.1233 11.9812 14.16 10.9402C13.2084 10.7117 12.5007 9.85481 12.5007 8.83335C12.5007 8.55721 12.7245 8.33335 13.0007 8.33335C13.2768 8.33335 13.5007 8.55721 13.5007 8.83335C13.5007 9.47721 14.0235 10 14.6673 10C14.9435 10 15.1673 10.2239 15.1673 10.5C15.1673 11.8298 15.0132 12.8612 14.3542 13.5202C13.6952 14.1792 12.6637 14.3334 11.334 14.3334H4.66732C3.33756 14.3334 2.3061 14.1792 1.6471 13.5202C0.988094 12.8612 0.833984 11.8298 0.833984 10.5V10.1667C0.833984 9.89055 1.05784 9.66669 1.33398 9.66669C1.97784 9.66669 2.50065 9.14388 2.50065 8.50002C2.50065 7.85616 1.97784 7.33335 1.33398 7.33335C1.05784 7.33335 0.833984 7.1095 0.833984 6.83335V6.50002C0.833984 5.17026 0.988094 4.1388 1.6471 3.4798Z" fill="white" fill-opacity="0.8"/>
<path fill-rule="evenodd" clip-rule="evenodd" d="M6.66602 2.66669C6.94216 2.66669 7.16602 2.89054 7.16602 3.16669L7.16602 4.50002C7.16602 4.77616 6.94216 5.00002 6.66602 5.00002C6.38987 5.00002 6.16602 4.77616 6.16602 4.50002L6.16602 3.16669C6.16602 2.89054 6.38987 2.66669 6.66602 2.66669ZM6.66602 6.66669C6.94216 6.66669 7.16602 6.89054 7.16602 7.16669L7.16602 9.83335C7.16602 10.1095 6.94216 10.3334 6.66602 10.3334C6.38987 10.3334 6.16602 10.1095 6.16602 9.83335L6.16602 7.16669C6.16602 6.89054 6.38987 6.66669 6.66602 6.66669ZM6.66602 12C6.94216 12 7.16602 12.2239 7.16602 12.5L7.16602 13.8334C7.16602 14.1095 6.94216 14.3334 6.66602 14.3334C6.38987 14.3334 6.16602 14.1095 6.16602 13.8334L6.16602 12.5C6.16602 12.2239 6.38987 12 6.66602 12Z" fill="white" fill-opacity="0.8"/>
</svg>
