<svg width="24" height="24" viewBox="0 0 24 24" fill="none" xmlns="http://www.w3.org/2000/svg">
<path d="M9.43809 3C7.0421 3 5.09421 4.9171 5.09421 7.27521C5.09421 9.58833 6.93236 11.4604 9.32835 11.5414C9.40151 11.5324 9.47467 11.5324 9.52954 11.5414H9.59356C10.7178 11.5045 11.7834 11.0387 12.565 10.2426C13.3467 9.44642 13.7831 8.3823 13.782 7.27521C13.782 4.9171 11.8341 3 9.43809 3ZM14.0838 13.9346C11.5323 12.2606 7.37132 12.2606 4.80157 13.9346C3.64015 14.6997 3 15.7347 3 16.8418C3 17.9488 3.64015 18.9749 4.79242 19.7309C6.07273 20.577 7.75541 21 9.43809 21C11.1208 21 12.8035 20.577 14.0838 19.7309C15.236 18.9659 15.8762 17.9398 15.8762 16.8238C15.867 15.7167 15.236 14.6907 14.0838 13.9346ZM19.4885 7.80444C19.6348 9.55053 18.3728 11.0806 16.6261 11.2876H16.5803C16.5255 11.2876 16.4706 11.2876 16.4249 11.3056C15.5378 11.3506 14.7239 11.0716 14.1112 10.5586C15.0531 9.73054 15.5927 8.48847 15.4829 7.13841C15.4202 6.43638 15.178 5.76139 14.7788 5.17631C15.258 4.94687 15.7867 4.83561 16.3193 4.85213C16.8519 4.86865 17.3725 5.01245 17.836 5.27113C18.2996 5.52981 18.6922 5.8956 18.9801 6.33694C19.268 6.77829 19.4425 7.28193 19.4885 7.80444Z" fill="white" fill-opacity="0.8"/>
<path d="M20.9898 16.2299C20.9149 17.2329 20.3344 18.1016 19.3608 18.691C18.4245 19.2598 17.2449 19.5286 16.0746 19.4976C16.7487 18.8254 17.1419 17.9878 17.2168 17.0985C17.3104 15.8162 16.7581 14.5856 15.6533 13.6033C15.026 13.0552 14.2958 12.6209 13.5 12.3003C15.5691 11.6385 18.1718 12.0831 19.7727 13.5102C20.634 14.2754 21.074 15.2371 20.9898 16.2299Z" fill="white" fill-opacity="0.8"/>
</svg>
