<svg width="24" height="24" viewBox="0 0 24 24" fill="none" xmlns="http://www.w3.org/2000/svg">
    <path fill-rule="evenodd" clip-rule="evenodd" d="M6.81 20.86H12.88C16.19 20.86 17.569 19.6246 17.6823 16.4883L19.1697 17.53C19.7997 17.97 20.3497 18.11 20.7797 18.11C21.1497 18.11 21.4497 18.01 21.6397 17.9C22.0497 17.69 22.7497 17.11 22.7497 15.66V8.32999C22.7497 6.87999 22.0497 6.30999 21.6397 6.08999C21.2297 5.87999 20.3597 5.63999 19.1697 6.46999L17.6823 7.51171C17.5689 4.37546 16.1899 3.14001 12.88 3.14001H6.81C3.35 3.14001 2 4.49001 2 7.95001V16.05C2 18.37 3.26 20.86 6.81 20.86ZM17.69 14.6402V9.35978L20.0397 7.71999C20.4897 7.40999 20.8097 7.37999 20.9397 7.44999C21.0697 7.51999 21.2297 7.79 21.2297 8.33999V15.66C21.2297 16.2 21.0797 16.48 20.9397 16.55C20.8097 16.62 20.4897 16.59 20.0397 16.28L17.69 14.6402ZM3.52 7.95001C3.52 5.34001 4.2 4.66001 6.81 4.66001H12.88C15.49 4.66001 16.17 5.34001 16.17 7.95001V16.05C16.17 18.66 15.49 19.34 12.88 19.34H6.81C3.95 19.34 3.52 17.28 3.52 16.05V7.95001Z"/>
    <path d="M11.5 11.75C10.26 11.75 9.25 10.74 9.25 9.5C9.25 8.26 10.26 7.25 11.5 7.25C12.74 7.25 13.75 8.26 13.75 9.5C13.75 10.74 12.74 11.75 11.5 11.75ZM11.5 8.75C11.09 8.75 10.75 9.09 10.75 9.5C10.75 9.91 11.09 10.25 11.5 10.25C11.91 10.25 12.25 9.91 12.25 9.5C12.25 9.09 11.91 8.75 11.5 8.75Z"/>
</svg>
