<svg width="19" height="19" viewBox="0 0 19 19" fill="none" xmlns="http://www.w3.org/2000/svg">
<path d="M2.04685 5.79591C2.90385 5.84915 3.87242 6.02068 4.8486 6.29211C5.80116 6.5572 6.72899 6.90426 7.62169 7.32939C8.37107 7.68892 9.03208 8.07876 9.59293 8.49167C10.7068 7.99458 11.9699 7.12249 13.092 6.0738C12.0079 5.19156 9.94563 4.18484 7.82809 3.50405C5.62447 2.79601 3.69202 2.55044 2.78506 2.8632C2.74942 2.87552 2.71289 2.8851 2.67578 2.89185C1.85524 3.73587 1.19989 4.72601 0.743591 5.81112C1.14378 5.77216 1.5782 5.76709 2.04685 5.79591Z" fill="white"/>
<path d="M8.28943 2.06796C10.6194 2.81594 12.8328 3.90989 14.0659 4.92144C14.092 4.94299 14.1166 4.96624 14.1396 4.99104C14.9652 4.04022 15.5392 3.10271 15.7497 2.34662C14.2569 1.04247 12.3937 0.237726 10.4208 0.0450242C8.44798 -0.147677 6.46426 0.281308 4.74731 1.27194C6.04728 1.4067 7.39287 1.7798 8.28943 2.06796Z" fill="white"/>
<path d="M16.2695 4.68835C15.7951 5.40526 15.1625 6.15996 14.44 6.87118C13.7348 7.56492 12.9709 8.19638 12.1569 8.75849C11.4712 9.22921 10.8035 9.60789 10.1659 9.88832C10.0384 11.1036 10.1604 12.6359 10.5058 14.1342C11.8103 13.6338 13.7104 12.3487 15.3561 10.8526C16.1965 10.0884 16.9239 9.31199 17.4597 8.60712C17.84 8.10648 18.3177 7.38576 18.4324 6.79536C18.4495 6.70694 18.4823 6.6223 18.5293 6.54549C18.4611 6.33724 18.3856 6.13089 18.3029 5.92644C17.9566 5.07103 17.4863 4.27122 16.9072 3.55269C16.7412 3.91839 16.5287 4.29695 16.2695 4.68835Z" fill="white"/>
<path d="M18.6617 9.51965C18.0712 10.2967 17.2798 11.1435 16.3719 11.9686C14.5598 13.6159 12.5081 14.9898 11.0172 15.5538C10.985 15.566 10.952 15.576 10.9185 15.5837C11.3664 16.8912 11.9529 17.9291 12.5584 18.4563C12.5692 18.4657 12.5796 18.4755 12.5897 18.4854C12.7525 18.4293 12.914 18.3689 13.0743 18.3041C14.8264 17.5936 16.3264 16.3761 17.3821 14.8076C18.4377 13.2391 19.0009 11.391 18.9994 9.50038C18.9994 9.35492 18.9961 9.20998 18.9895 9.06554C18.888 9.21412 18.7787 9.36549 18.6617 9.51965Z" fill="white"/>
<path d="M10.113 17.5818C9.73048 16.8118 9.39452 15.8856 9.1411 14.9033C8.894 13.9444 8.73014 12.966 8.65136 11.979C8.58734 11.1483 8.59381 10.3794 8.67051 9.68609C7.68444 8.96778 6.29967 8.30854 4.833 7.85899C4.61266 9.24085 4.77341 11.534 5.24401 13.7112C5.73425 15.9785 6.48831 17.7787 7.21246 18.4092C7.32415 18.5062 7.40465 18.6341 7.44382 18.7768C8.58487 19.0273 9.76208 19.0673 10.9175 18.8947C10.6322 18.5244 10.364 18.0868 10.113 17.5818Z" fill="white"/>
<path d="M3.76945 14.0303C3.25157 11.6343 3.09005 9.16797 3.34779 7.59265C3.35344 7.55834 3.36145 7.52445 3.37175 7.49123C2.10767 7.24402 0.986715 7.2193 0.226567 7.43025C-0.224321 9.45933 0.00163374 11.5802 0.869893 13.4688C1.73815 15.3573 3.20094 16.9095 5.03467 17.8883C4.39788 16.6088 3.99092 15.0534 3.76945 14.0303Z" fill="white" fill-opacity="0.5"/>
</svg>
