<svg width="20" height="20" viewBox="0 0 20 20" fill="none" xmlns="http://www.w3.org/2000/svg">
<path d="M10 0C4.48625 0 0 4.48625 0 10C0 15.5138 4.48625 20 10 20C15.5138 20 20 15.5138 20 10C20 4.48625 15.5138 0 10 0ZM18.6425 8.7025C16.6687 8.035 13.5562 7.58375 10.065 9.27625C8.75875 8.39 7.82375 7.38 7.16 6.3425C12.2725 4.24 16.4925 6.0925 18.2612 7.1425C18.435 7.64375 18.5625 8.165 18.6425 8.7025ZM10 1.25C13.0875 1.25 15.8013 2.8625 17.3587 5.285C14.9625 4.24125 11.0662 3.3325 6.55 5.245C6.08 4.2425 5.82 3.265 5.6925 2.3925C6.965 1.66875 8.43375 1.25 10 1.25ZM4.55 3.16625C4.99625 5.4225 6.24125 8.18125 9.34 10.2913C9.22125 11.9688 8.76375 13.3425 8.1575 14.455C4.49375 11.5 3.1475 7.86375 2.69625 5.19375C3.205 4.42375 3.83125 3.74 4.55 3.16625ZM5.56 17.5262C2.985 16.0012 1.25 13.2025 1.25 10C1.25 8.935 1.45125 7.9175 1.80125 6.9725C2.5225 9.65875 4.1075 12.8687 7.47875 15.5338C6.8375 16.4112 6.15 17.0675 5.56 17.5262ZM9.20875 18.71C8.36125 18.6338 7.55125 18.4338 6.79 18.1313C8.35625 16.7738 10.2925 14.3175 10.58 10.4237C11.885 9.785 13.1287 9.46375 14.2775 9.37375C13.6912 14.0063 11.275 16.9838 9.20875 18.71ZM11.0875 18.675C13.0638 16.7013 15.0363 13.69 15.54 9.36C16.77 9.42625 17.8512 9.71875 18.7463 10.0775C18.7075 14.4988 15.375 18.14 11.0875 18.675Z" fill="white"/>
</svg>
