<svg width="15" height="18" viewBox="0 0 15 18" fill="none" xmlns="http://www.w3.org/2000/svg">
<g clip-path="url(#clip0_1043_6968)">
<path d="M14.5422 13.2776C14.3098 12.898 13.9382 12.5799 13.4273 12.3235C12.9165 12.067 12.0708 11.8135 10.8904 11.5628C10.4133 11.4652 10.1111 11.3595 9.98394 11.2457C9.85287 11.1362 9.78733 11.0129 9.78733 10.8758C9.78733 10.6878 9.86684 10.5283 10.0259 10.3971C10.1849 10.2659 10.4213 10.2003 10.7352 10.2003C11.1171 10.2003 11.416 10.2887 11.632 10.4653C11.8203 10.6183 11.9523 10.8512 12.0279 11.1642H14.6043C14.493 10.2717 14.1441 9.62078 13.5578 9.21154C12.9715 8.8023 12.1195 8.59775 11.002 8.5979C10.4844 8.5979 10.0295 8.6347 9.63734 8.70831L7.62902 12.3076C7.74653 12.4835 7.88848 12.6425 8.05073 12.7797C8.55546 13.2142 9.39992 13.5627 10.5841 13.825C11.3074 13.9815 11.7684 14.1478 11.9674 14.324C12.1663 14.5003 12.2656 14.6999 12.2653 14.9231C12.2653 15.1586 12.1607 15.3652 11.9515 15.5427C11.7422 15.7202 11.4451 15.8093 11.0601 15.8099C10.5434 15.8099 10.1459 15.6357 9.86759 15.2872C9.71947 15.1004 9.61485 14.8401 9.55372 14.5062H6.96182C7.03655 15.3747 7.36051 16.0912 7.9337 16.6556C8.50688 17.22 9.53638 17.5018 11.0222 17.5011C11.8687 17.5011 12.5703 17.3808 13.1269 17.1401C13.6835 16.8994 14.1169 16.5461 14.4272 16.0802C14.733 15.6281 14.8949 15.0965 14.8922 14.5532C14.8914 14.0828 14.7748 13.6576 14.5422 13.2776Z" fill="white" fill-opacity="0.8"/>
<path d="M10.926 5.92495L7.97787 5.93533L10.5837 0.5L10.1261 0.501546L9.33559 0.504417L9.33715 0.5H6.66702L4.77528 6.53484L2.8591 0.5H0.108704L3.32408 8.88584H6.91699L4.46813 17.5L10.926 5.92495ZM10.5187 6.14245L6.2832 13.9314L10.0151 6.14245H10.5187ZM10.1882 0.716176L7.69494 5.96734L9.76828 0.716176H10.1882Z" fill="white" fill-opacity="0.8"/>
</g>
<defs>
<clipPath id="clip0_1043_6968">
<rect width="14.7826" height="17" fill="white" transform="translate(0.108704 0.5)"/>
</clipPath>
</defs>
</svg>
