<svg width="20" height="19" viewBox="0 0 20 19" fill="none" xmlns="http://www.w3.org/2000/svg">
<path d="M9.5006 0C4.26077 0 0 4.26137 0 9.5012C0 14.7398 4.26137 19 9.5006 19C14.7398 19 19.0018 14.7386 19.0018 9.5012C19 4.26077 14.7398 0 9.5006 0ZM17.2952 9.73951L16.7844 9.08401L17.0221 7.44345C17.2016 8.10015 17.2976 8.78747 17.2976 9.5012C17.2988 9.58104 17.2976 9.65967 17.2952 9.73951ZM16.393 5.85511L15.9464 8.93994L14.5663 10.0499L10.341 8.81748L9.7095 5.86051L12.2733 3.43599L15.7675 4.86645C15.9986 5.1792 16.2087 5.50875 16.393 5.85511ZM10.8374 16.2345L7.95188 15.5088L7.66015 11.3843L9.96161 9.59604L13.9078 10.7462L14.2644 13.6623L10.8374 16.2345ZM11.2258 1.89568L11.6388 2.86093L8.92313 5.42951H5.90674L4.3244 3.6731C5.70204 2.44733 7.51488 1.70239 9.5006 1.70239C10.0943 1.70239 10.6711 1.76962 11.2258 1.89568ZM3.71812 4.27398L5.32327 6.0556L4.24276 8.69683L1.70539 9.7179C1.70299 9.64527 1.70239 9.57263 1.70239 9.5012C1.70239 7.49207 2.46654 5.65702 3.71812 4.27398ZM1.78102 10.6057L4.41805 9.54442L6.81075 11.4401L7.08688 15.3527L5.40971 16.1367C3.48401 14.9445 2.11358 12.9396 1.78102 10.6057ZM11.3176 17.0845V16.9392L15.0874 14.1113H15.7855C14.7092 15.573 13.1353 16.6481 11.3176 17.0845Z" fill="#FFFFFF" fill-opacity="0.8"/>
</svg>
